<?xml version="1.0" encoding="utf-8" standalone="no"?>
<!DOCTYPE svg PUBLIC "-//W3C//DTD SVG 1.1//EN"
  "http://www.w3.org/Graphics/SVG/1.1/DTD/svg11.dtd">
<!-- Created with matplotlib (https://matplotlib.org/) -->
<svg height="576pt" version="1.1" viewBox="0 0 648 576" width="648pt" xmlns="http://www.w3.org/2000/svg" xmlns:xlink="http://www.w3.org/1999/xlink">
 <metadata>
  <rdf:RDF xmlns:cc="http://creativecommons.org/ns#" xmlns:dc="http://purl.org/dc/elements/1.1/" xmlns:rdf="http://www.w3.org/1999/02/22-rdf-syntax-ns#">
   <cc:Work>
    <dc:type rdf:resource="http://purl.org/dc/dcmitype/StillImage"/>
    <dc:date>2022-05-20T23:52:31.819339</dc:date>
    <dc:format>image/svg+xml</dc:format>
    <dc:creator>
     <cc:Agent>
      <dc:title>Matplotlib v3.3.4, https://matplotlib.org/</dc:title>
     </cc:Agent>
    </dc:creator>
   </cc:Work>
  </rdf:RDF>
 </metadata>
 <defs>
  <style type="text/css">*{stroke-linecap:butt;stroke-linejoin:round;}</style>
 </defs>
 <g id="figure_1">
  <g id="patch_1">
   <path d="M 0 576 
L 648 576 
L 648 0 
L 0 0 
z
" style="fill:none;"/>
  </g>
  <g id="axes_1">
   <g id="patch_2">
    <path d="M 57.87 203.343111 
L 288.783934 203.343111 
L 288.783934 35.12 
L 57.87 35.12 
z
" style="fill:#ffffff;"/>
   </g>
   <g id="matplotlib.axis_1">
    <g id="xtick_1">
     <g id="line2d_1">
      <defs>
       <path d="M 0 0 
L 0 3.5 
" id="m5884082668" style="stroke:#000000;stroke-width:0.8;"/>
      </defs>
      <g>
       <use style="stroke:#000000;stroke-width:0.8;" x="57.87" xlink:href="#m5884082668" y="203.343111"/>
      </g>
     </g>
     <g id="text_1">
      <!-- 0 -->
      <g transform="translate(53.41625 220.980924)scale(0.14 -0.14)">
       <defs>
        <path d="M 31.78125 66.40625 
Q 24.171875 66.40625 20.328125 58.90625 
Q 16.5 51.421875 16.5 36.375 
Q 16.5 21.390625 20.328125 13.890625 
Q 24.171875 6.390625 31.78125 6.390625 
Q 39.453125 6.390625 43.28125 13.890625 
Q 47.125 21.390625 47.125 36.375 
Q 47.125 51.421875 43.28125 58.90625 
Q 39.453125 66.40625 31.78125 66.40625 
z
M 31.78125 74.21875 
Q 44.046875 74.21875 50.515625 64.515625 
Q 56.984375 54.828125 56.984375 36.375 
Q 56.984375 17.96875 50.515625 8.265625 
Q 44.046875 -1.421875 31.78125 -1.421875 
Q 19.53125 -1.421875 13.0625 8.265625 
Q 6.59375 17.96875 6.59375 36.375 
Q 6.59375 54.828125 13.0625 64.515625 
Q 19.53125 74.21875 31.78125 74.21875 
z
" id="DejaVuSans-48"/>
       </defs>
       <use xlink:href="#DejaVuSans-48"/>
      </g>
     </g>
    </g>
    <g id="xtick_2">
     <g id="line2d_2">
      <g>
       <use style="stroke:#000000;stroke-width:0.8;" x="114.466552" xlink:href="#m5884082668" y="203.343111"/>
      </g>
     </g>
     <g id="text_2">
      <!-- 25000 -->
      <g transform="translate(92.197802 220.980924)scale(0.14 -0.14)">
       <defs>
        <path d="M 19.1875 8.296875 
L 53.609375 8.296875 
L 53.609375 0 
L 7.328125 0 
L 7.328125 8.296875 
Q 12.9375 14.109375 22.625 23.890625 
Q 32.328125 33.6875 34.8125 36.53125 
Q 39.546875 41.84375 41.421875 45.53125 
Q 43.3125 49.21875 43.3125 52.78125 
Q 43.3125 58.59375 39.234375 62.25 
Q 35.15625 65.921875 28.609375 65.921875 
Q 23.96875 65.921875 18.8125 64.3125 
Q 13.671875 62.703125 7.8125 59.421875 
L 7.8125 69.390625 
Q 13.765625 71.78125 18.9375 73 
Q 24.125 74.21875 28.421875 74.21875 
Q 39.75 74.21875 46.484375 68.546875 
Q 53.21875 62.890625 53.21875 53.421875 
Q 53.21875 48.921875 51.53125 44.890625 
Q 49.859375 40.875 45.40625 35.40625 
Q 44.1875 33.984375 37.640625 27.21875 
Q 31.109375 20.453125 19.1875 8.296875 
z
" id="DejaVuSans-50"/>
        <path d="M 10.796875 72.90625 
L 49.515625 72.90625 
L 49.515625 64.59375 
L 19.828125 64.59375 
L 19.828125 46.734375 
Q 21.96875 47.46875 24.109375 47.828125 
Q 26.265625 48.1875 28.421875 48.1875 
Q 40.625 48.1875 47.75 41.5 
Q 54.890625 34.8125 54.890625 23.390625 
Q 54.890625 11.625 47.5625 5.09375 
Q 40.234375 -1.421875 26.90625 -1.421875 
Q 22.3125 -1.421875 17.546875 -0.640625 
Q 12.796875 0.140625 7.71875 1.703125 
L 7.71875 11.625 
Q 12.109375 9.234375 16.796875 8.0625 
Q 21.484375 6.890625 26.703125 6.890625 
Q 35.15625 6.890625 40.078125 11.328125 
Q 45.015625 15.765625 45.015625 23.390625 
Q 45.015625 31 40.078125 35.4375 
Q 35.15625 39.890625 26.703125 39.890625 
Q 22.75 39.890625 18.8125 39.015625 
Q 14.890625 38.140625 10.796875 36.28125 
z
" id="DejaVuSans-53"/>
       </defs>
       <use xlink:href="#DejaVuSans-50"/>
       <use x="63.623047" xlink:href="#DejaVuSans-53"/>
       <use x="127.246094" xlink:href="#DejaVuSans-48"/>
       <use x="190.869141" xlink:href="#DejaVuSans-48"/>
       <use x="254.492188" xlink:href="#DejaVuSans-48"/>
      </g>
     </g>
    </g>
    <g id="xtick_3">
     <g id="line2d_3">
      <g>
       <use style="stroke:#000000;stroke-width:0.8;" x="171.063105" xlink:href="#m5884082668" y="203.343111"/>
      </g>
     </g>
     <g id="text_3">
      <!-- 50000 -->
      <g transform="translate(148.794355 220.980924)scale(0.14 -0.14)">
       <use xlink:href="#DejaVuSans-53"/>
       <use x="63.623047" xlink:href="#DejaVuSans-48"/>
       <use x="127.246094" xlink:href="#DejaVuSans-48"/>
       <use x="190.869141" xlink:href="#DejaVuSans-48"/>
       <use x="254.492188" xlink:href="#DejaVuSans-48"/>
      </g>
     </g>
    </g>
    <g id="xtick_4">
     <g id="line2d_4">
      <g>
       <use style="stroke:#000000;stroke-width:0.8;" x="227.659657" xlink:href="#m5884082668" y="203.343111"/>
      </g>
     </g>
     <g id="text_4">
      <!-- 75000 -->
      <g transform="translate(205.390907 220.980924)scale(0.14 -0.14)">
       <defs>
        <path d="M 8.203125 72.90625 
L 55.078125 72.90625 
L 55.078125 68.703125 
L 28.609375 0 
L 18.3125 0 
L 43.21875 64.59375 
L 8.203125 64.59375 
z
" id="DejaVuSans-55"/>
       </defs>
       <use xlink:href="#DejaVuSans-55"/>
       <use x="63.623047" xlink:href="#DejaVuSans-53"/>
       <use x="127.246094" xlink:href="#DejaVuSans-48"/>
       <use x="190.869141" xlink:href="#DejaVuSans-48"/>
       <use x="254.492188" xlink:href="#DejaVuSans-48"/>
      </g>
     </g>
    </g>
    <g id="xtick_5">
     <g id="line2d_5">
      <g>
       <use style="stroke:#000000;stroke-width:0.8;" x="284.25621" xlink:href="#m5884082668" y="203.343111"/>
      </g>
     </g>
     <g id="text_5">
      <!-- 100000 -->
      <g transform="translate(257.53371 220.980924)scale(0.14 -0.14)">
       <defs>
        <path d="M 12.40625 8.296875 
L 28.515625 8.296875 
L 28.515625 63.921875 
L 10.984375 60.40625 
L 10.984375 69.390625 
L 28.421875 72.90625 
L 38.28125 72.90625 
L 38.28125 8.296875 
L 54.390625 8.296875 
L 54.390625 0 
L 12.40625 0 
z
" id="DejaVuSans-49"/>
       </defs>
       <use xlink:href="#DejaVuSans-49"/>
       <use x="63.623047" xlink:href="#DejaVuSans-48"/>
       <use x="127.246094" xlink:href="#DejaVuSans-48"/>
       <use x="190.869141" xlink:href="#DejaVuSans-48"/>
       <use x="254.492188" xlink:href="#DejaVuSans-48"/>
       <use x="318.115234" xlink:href="#DejaVuSans-48"/>
      </g>
     </g>
    </g>
    <g id="text_6">
     <!-- function evaluations -->
     <g transform="translate(102.042904 238.530299)scale(0.14 -0.14)">
      <defs>
       <path d="M 37.109375 75.984375 
L 37.109375 68.5 
L 28.515625 68.5 
Q 23.6875 68.5 21.796875 66.546875 
Q 19.921875 64.59375 19.921875 59.515625 
L 19.921875 54.6875 
L 34.71875 54.6875 
L 34.71875 47.703125 
L 19.921875 47.703125 
L 19.921875 0 
L 10.890625 0 
L 10.890625 47.703125 
L 2.296875 47.703125 
L 2.296875 54.6875 
L 10.890625 54.6875 
L 10.890625 58.5 
Q 10.890625 67.625 15.140625 71.796875 
Q 19.390625 75.984375 28.609375 75.984375 
z
" id="DejaVuSans-102"/>
       <path d="M 8.5 21.578125 
L 8.5 54.6875 
L 17.484375 54.6875 
L 17.484375 21.921875 
Q 17.484375 14.15625 20.5 10.265625 
Q 23.53125 6.390625 29.59375 6.390625 
Q 36.859375 6.390625 41.078125 11.03125 
Q 45.3125 15.671875 45.3125 23.6875 
L 45.3125 54.6875 
L 54.296875 54.6875 
L 54.296875 0 
L 45.3125 0 
L 45.3125 8.40625 
Q 42.046875 3.421875 37.71875 1 
Q 33.40625 -1.421875 27.6875 -1.421875 
Q 18.265625 -1.421875 13.375 4.4375 
Q 8.5 10.296875 8.5 21.578125 
z
M 31.109375 56 
z
" id="DejaVuSans-117"/>
       <path d="M 54.890625 33.015625 
L 54.890625 0 
L 45.90625 0 
L 45.90625 32.71875 
Q 45.90625 40.484375 42.875 44.328125 
Q 39.84375 48.1875 33.796875 48.1875 
Q 26.515625 48.1875 22.3125 43.546875 
Q 18.109375 38.921875 18.109375 30.90625 
L 18.109375 0 
L 9.078125 0 
L 9.078125 54.6875 
L 18.109375 54.6875 
L 18.109375 46.1875 
Q 21.34375 51.125 25.703125 53.5625 
Q 30.078125 56 35.796875 56 
Q 45.21875 56 50.046875 50.171875 
Q 54.890625 44.34375 54.890625 33.015625 
z
" id="DejaVuSans-110"/>
       <path d="M 48.78125 52.59375 
L 48.78125 44.1875 
Q 44.96875 46.296875 41.140625 47.34375 
Q 37.3125 48.390625 33.40625 48.390625 
Q 24.65625 48.390625 19.8125 42.84375 
Q 14.984375 37.3125 14.984375 27.296875 
Q 14.984375 17.28125 19.8125 11.734375 
Q 24.65625 6.203125 33.40625 6.203125 
Q 37.3125 6.203125 41.140625 7.25 
Q 44.96875 8.296875 48.78125 10.40625 
L 48.78125 2.09375 
Q 45.015625 0.34375 40.984375 -0.53125 
Q 36.96875 -1.421875 32.421875 -1.421875 
Q 20.0625 -1.421875 12.78125 6.34375 
Q 5.515625 14.109375 5.515625 27.296875 
Q 5.515625 40.671875 12.859375 48.328125 
Q 20.21875 56 33.015625 56 
Q 37.15625 56 41.109375 55.140625 
Q 45.0625 54.296875 48.78125 52.59375 
z
" id="DejaVuSans-99"/>
       <path d="M 18.3125 70.21875 
L 18.3125 54.6875 
L 36.8125 54.6875 
L 36.8125 47.703125 
L 18.3125 47.703125 
L 18.3125 18.015625 
Q 18.3125 11.328125 20.140625 9.421875 
Q 21.96875 7.515625 27.59375 7.515625 
L 36.8125 7.515625 
L 36.8125 0 
L 27.59375 0 
Q 17.1875 0 13.234375 3.875 
Q 9.28125 7.765625 9.28125 18.015625 
L 9.28125 47.703125 
L 2.6875 47.703125 
L 2.6875 54.6875 
L 9.28125 54.6875 
L 9.28125 70.21875 
z
" id="DejaVuSans-116"/>
       <path d="M 9.421875 54.6875 
L 18.40625 54.6875 
L 18.40625 0 
L 9.421875 0 
z
M 9.421875 75.984375 
L 18.40625 75.984375 
L 18.40625 64.59375 
L 9.421875 64.59375 
z
" id="DejaVuSans-105"/>
       <path d="M 30.609375 48.390625 
Q 23.390625 48.390625 19.1875 42.75 
Q 14.984375 37.109375 14.984375 27.296875 
Q 14.984375 17.484375 19.15625 11.84375 
Q 23.34375 6.203125 30.609375 6.203125 
Q 37.796875 6.203125 41.984375 11.859375 
Q 46.1875 17.53125 46.1875 27.296875 
Q 46.1875 37.015625 41.984375 42.703125 
Q 37.796875 48.390625 30.609375 48.390625 
z
M 30.609375 56 
Q 42.328125 56 49.015625 48.375 
Q 55.71875 40.765625 55.71875 27.296875 
Q 55.71875 13.875 49.015625 6.21875 
Q 42.328125 -1.421875 30.609375 -1.421875 
Q 18.84375 -1.421875 12.171875 6.21875 
Q 5.515625 13.875 5.515625 27.296875 
Q 5.515625 40.765625 12.171875 48.375 
Q 18.84375 56 30.609375 56 
z
" id="DejaVuSans-111"/>
       <path id="DejaVuSans-32"/>
       <path d="M 56.203125 29.59375 
L 56.203125 25.203125 
L 14.890625 25.203125 
Q 15.484375 15.921875 20.484375 11.0625 
Q 25.484375 6.203125 34.421875 6.203125 
Q 39.59375 6.203125 44.453125 7.46875 
Q 49.3125 8.734375 54.109375 11.28125 
L 54.109375 2.78125 
Q 49.265625 0.734375 44.1875 -0.34375 
Q 39.109375 -1.421875 33.890625 -1.421875 
Q 20.796875 -1.421875 13.15625 6.1875 
Q 5.515625 13.8125 5.515625 26.8125 
Q 5.515625 40.234375 12.765625 48.109375 
Q 20.015625 56 32.328125 56 
Q 43.359375 56 49.78125 48.890625 
Q 56.203125 41.796875 56.203125 29.59375 
z
M 47.21875 32.234375 
Q 47.125 39.59375 43.09375 43.984375 
Q 39.0625 48.390625 32.421875 48.390625 
Q 24.90625 48.390625 20.390625 44.140625 
Q 15.875 39.890625 15.1875 32.171875 
z
" id="DejaVuSans-101"/>
       <path d="M 2.984375 54.6875 
L 12.5 54.6875 
L 29.59375 8.796875 
L 46.6875 54.6875 
L 56.203125 54.6875 
L 35.6875 0 
L 23.484375 0 
z
" id="DejaVuSans-118"/>
       <path d="M 34.28125 27.484375 
Q 23.390625 27.484375 19.1875 25 
Q 14.984375 22.515625 14.984375 16.5 
Q 14.984375 11.71875 18.140625 8.90625 
Q 21.296875 6.109375 26.703125 6.109375 
Q 34.1875 6.109375 38.703125 11.40625 
Q 43.21875 16.703125 43.21875 25.484375 
L 43.21875 27.484375 
z
M 52.203125 31.203125 
L 52.203125 0 
L 43.21875 0 
L 43.21875 8.296875 
Q 40.140625 3.328125 35.546875 0.953125 
Q 30.953125 -1.421875 24.3125 -1.421875 
Q 15.921875 -1.421875 10.953125 3.296875 
Q 6 8.015625 6 15.921875 
Q 6 25.140625 12.171875 29.828125 
Q 18.359375 34.515625 30.609375 34.515625 
L 43.21875 34.515625 
L 43.21875 35.40625 
Q 43.21875 41.609375 39.140625 45 
Q 35.0625 48.390625 27.6875 48.390625 
Q 23 48.390625 18.546875 47.265625 
Q 14.109375 46.140625 10.015625 43.890625 
L 10.015625 52.203125 
Q 14.9375 54.109375 19.578125 55.046875 
Q 24.21875 56 28.609375 56 
Q 40.484375 56 46.34375 49.84375 
Q 52.203125 43.703125 52.203125 31.203125 
z
" id="DejaVuSans-97"/>
       <path d="M 9.421875 75.984375 
L 18.40625 75.984375 
L 18.40625 0 
L 9.421875 0 
z
" id="DejaVuSans-108"/>
       <path d="M 44.28125 53.078125 
L 44.28125 44.578125 
Q 40.484375 46.53125 36.375 47.5 
Q 32.28125 48.484375 27.875 48.484375 
Q 21.1875 48.484375 17.84375 46.4375 
Q 14.5 44.390625 14.5 40.28125 
Q 14.5 37.15625 16.890625 35.375 
Q 19.28125 33.59375 26.515625 31.984375 
L 29.59375 31.296875 
Q 39.15625 29.25 43.1875 25.515625 
Q 47.21875 21.78125 47.21875 15.09375 
Q 47.21875 7.46875 41.1875 3.015625 
Q 35.15625 -1.421875 24.609375 -1.421875 
Q 20.21875 -1.421875 15.453125 -0.5625 
Q 10.6875 0.296875 5.421875 2 
L 5.421875 11.28125 
Q 10.40625 8.6875 15.234375 7.390625 
Q 20.0625 6.109375 24.8125 6.109375 
Q 31.15625 6.109375 34.5625 8.28125 
Q 37.984375 10.453125 37.984375 14.40625 
Q 37.984375 18.0625 35.515625 20.015625 
Q 33.0625 21.96875 24.703125 23.78125 
L 21.578125 24.515625 
Q 13.234375 26.265625 9.515625 29.90625 
Q 5.8125 33.546875 5.8125 39.890625 
Q 5.8125 47.609375 11.28125 51.796875 
Q 16.75 56 26.8125 56 
Q 31.78125 56 36.171875 55.265625 
Q 40.578125 54.546875 44.28125 53.078125 
z
" id="DejaVuSans-115"/>
      </defs>
      <use xlink:href="#DejaVuSans-102"/>
      <use x="35.205078" xlink:href="#DejaVuSans-117"/>
      <use x="98.583984" xlink:href="#DejaVuSans-110"/>
      <use x="161.962891" xlink:href="#DejaVuSans-99"/>
      <use x="216.943359" xlink:href="#DejaVuSans-116"/>
      <use x="256.152344" xlink:href="#DejaVuSans-105"/>
      <use x="283.935547" xlink:href="#DejaVuSans-111"/>
      <use x="345.117188" xlink:href="#DejaVuSans-110"/>
      <use x="408.496094" xlink:href="#DejaVuSans-32"/>
      <use x="440.283203" xlink:href="#DejaVuSans-101"/>
      <use x="501.806641" xlink:href="#DejaVuSans-118"/>
      <use x="560.986328" xlink:href="#DejaVuSans-97"/>
      <use x="622.265625" xlink:href="#DejaVuSans-108"/>
      <use x="650.048828" xlink:href="#DejaVuSans-117"/>
      <use x="713.427734" xlink:href="#DejaVuSans-97"/>
      <use x="774.707031" xlink:href="#DejaVuSans-116"/>
      <use x="813.916016" xlink:href="#DejaVuSans-105"/>
      <use x="841.699219" xlink:href="#DejaVuSans-111"/>
      <use x="902.880859" xlink:href="#DejaVuSans-110"/>
      <use x="966.259766" xlink:href="#DejaVuSans-115"/>
     </g>
    </g>
   </g>
   <g id="matplotlib.axis_2">
    <g id="ytick_1">
     <g id="line2d_6">
      <defs>
       <path d="M 0 0 
L -3.5 0 
" id="m093f530fc6" style="stroke:#000000;stroke-width:0.8;"/>
      </defs>
      <g>
       <use style="stroke:#000000;stroke-width:0.8;" x="57.87" xlink:href="#m093f530fc6" y="203.343111"/>
      </g>
     </g>
     <g id="text_7">
      <!-- 0 -->
      <g transform="translate(41.9625 208.662017)scale(0.14 -0.14)">
       <use xlink:href="#DejaVuSans-48"/>
      </g>
     </g>
    </g>
    <g id="ytick_2">
     <g id="line2d_7">
      <g>
       <use style="stroke:#000000;stroke-width:0.8;" x="57.87" xlink:href="#m093f530fc6" y="161.287333"/>
      </g>
     </g>
     <g id="text_8">
      <!-- 10 -->
      <g transform="translate(33.055 166.60624)scale(0.14 -0.14)">
       <use xlink:href="#DejaVuSans-49"/>
       <use x="63.623047" xlink:href="#DejaVuSans-48"/>
      </g>
     </g>
    </g>
    <g id="ytick_3">
     <g id="line2d_8">
      <g>
       <use style="stroke:#000000;stroke-width:0.8;" x="57.87" xlink:href="#m093f530fc6" y="119.231556"/>
      </g>
     </g>
     <g id="text_9">
      <!-- 20 -->
      <g transform="translate(33.055 124.550462)scale(0.14 -0.14)">
       <use xlink:href="#DejaVuSans-50"/>
       <use x="63.623047" xlink:href="#DejaVuSans-48"/>
      </g>
     </g>
    </g>
    <g id="ytick_4">
     <g id="line2d_9">
      <g>
       <use style="stroke:#000000;stroke-width:0.8;" x="57.87" xlink:href="#m093f530fc6" y="77.175778"/>
      </g>
     </g>
     <g id="text_10">
      <!-- 30 -->
      <g transform="translate(33.055 82.494684)scale(0.14 -0.14)">
       <defs>
        <path d="M 40.578125 39.3125 
Q 47.65625 37.796875 51.625 33 
Q 55.609375 28.21875 55.609375 21.1875 
Q 55.609375 10.40625 48.1875 4.484375 
Q 40.765625 -1.421875 27.09375 -1.421875 
Q 22.515625 -1.421875 17.65625 -0.515625 
Q 12.796875 0.390625 7.625 2.203125 
L 7.625 11.71875 
Q 11.71875 9.328125 16.59375 8.109375 
Q 21.484375 6.890625 26.8125 6.890625 
Q 36.078125 6.890625 40.9375 10.546875 
Q 45.796875 14.203125 45.796875 21.1875 
Q 45.796875 27.640625 41.28125 31.265625 
Q 36.765625 34.90625 28.71875 34.90625 
L 20.21875 34.90625 
L 20.21875 43.015625 
L 29.109375 43.015625 
Q 36.375 43.015625 40.234375 45.921875 
Q 44.09375 48.828125 44.09375 54.296875 
Q 44.09375 59.90625 40.109375 62.90625 
Q 36.140625 65.921875 28.71875 65.921875 
Q 24.65625 65.921875 20.015625 65.03125 
Q 15.375 64.15625 9.8125 62.3125 
L 9.8125 71.09375 
Q 15.4375 72.65625 20.34375 73.4375 
Q 25.25 74.21875 29.59375 74.21875 
Q 40.828125 74.21875 47.359375 69.109375 
Q 53.90625 64.015625 53.90625 55.328125 
Q 53.90625 49.265625 50.4375 45.09375 
Q 46.96875 40.921875 40.578125 39.3125 
z
" id="DejaVuSans-51"/>
       </defs>
       <use xlink:href="#DejaVuSans-51"/>
       <use x="63.623047" xlink:href="#DejaVuSans-48"/>
      </g>
     </g>
    </g>
    <g id="ytick_5">
     <g id="line2d_10">
      <g>
       <use style="stroke:#000000;stroke-width:0.8;" x="57.87" xlink:href="#m093f530fc6" y="35.12"/>
      </g>
     </g>
     <g id="text_11">
      <!-- 40 -->
      <g transform="translate(33.055 40.438906)scale(0.14 -0.14)">
       <defs>
        <path d="M 37.796875 64.3125 
L 12.890625 25.390625 
L 37.796875 25.390625 
z
M 35.203125 72.90625 
L 47.609375 72.90625 
L 47.609375 25.390625 
L 58.015625 25.390625 
L 58.015625 17.1875 
L 47.609375 17.1875 
L 47.609375 0 
L 37.796875 0 
L 37.796875 17.1875 
L 4.890625 17.1875 
L 4.890625 26.703125 
z
" id="DejaVuSans-52"/>
       </defs>
       <use xlink:href="#DejaVuSans-52"/>
       <use x="63.623047" xlink:href="#DejaVuSans-48"/>
      </g>
     </g>
    </g>
    <g id="text_12">
     <!-- best individual error -->
     <g transform="translate(26.143438 189.737962)rotate(-90)scale(0.14 -0.14)">
      <defs>
       <path d="M 48.6875 27.296875 
Q 48.6875 37.203125 44.609375 42.84375 
Q 40.53125 48.484375 33.40625 48.484375 
Q 26.265625 48.484375 22.1875 42.84375 
Q 18.109375 37.203125 18.109375 27.296875 
Q 18.109375 17.390625 22.1875 11.75 
Q 26.265625 6.109375 33.40625 6.109375 
Q 40.53125 6.109375 44.609375 11.75 
Q 48.6875 17.390625 48.6875 27.296875 
z
M 18.109375 46.390625 
Q 20.953125 51.265625 25.265625 53.625 
Q 29.59375 56 35.59375 56 
Q 45.5625 56 51.78125 48.09375 
Q 58.015625 40.1875 58.015625 27.296875 
Q 58.015625 14.40625 51.78125 6.484375 
Q 45.5625 -1.421875 35.59375 -1.421875 
Q 29.59375 -1.421875 25.265625 0.953125 
Q 20.953125 3.328125 18.109375 8.203125 
L 18.109375 0 
L 9.078125 0 
L 9.078125 75.984375 
L 18.109375 75.984375 
z
" id="DejaVuSans-98"/>
       <path d="M 45.40625 46.390625 
L 45.40625 75.984375 
L 54.390625 75.984375 
L 54.390625 0 
L 45.40625 0 
L 45.40625 8.203125 
Q 42.578125 3.328125 38.25 0.953125 
Q 33.9375 -1.421875 27.875 -1.421875 
Q 17.96875 -1.421875 11.734375 6.484375 
Q 5.515625 14.40625 5.515625 27.296875 
Q 5.515625 40.1875 11.734375 48.09375 
Q 17.96875 56 27.875 56 
Q 33.9375 56 38.25 53.625 
Q 42.578125 51.265625 45.40625 46.390625 
z
M 14.796875 27.296875 
Q 14.796875 17.390625 18.875 11.75 
Q 22.953125 6.109375 30.078125 6.109375 
Q 37.203125 6.109375 41.296875 11.75 
Q 45.40625 17.390625 45.40625 27.296875 
Q 45.40625 37.203125 41.296875 42.84375 
Q 37.203125 48.484375 30.078125 48.484375 
Q 22.953125 48.484375 18.875 42.84375 
Q 14.796875 37.203125 14.796875 27.296875 
z
" id="DejaVuSans-100"/>
       <path d="M 41.109375 46.296875 
Q 39.59375 47.171875 37.8125 47.578125 
Q 36.03125 48 33.890625 48 
Q 26.265625 48 22.1875 43.046875 
Q 18.109375 38.09375 18.109375 28.8125 
L 18.109375 0 
L 9.078125 0 
L 9.078125 54.6875 
L 18.109375 54.6875 
L 18.109375 46.1875 
Q 20.953125 51.171875 25.484375 53.578125 
Q 30.03125 56 36.53125 56 
Q 37.453125 56 38.578125 55.875 
Q 39.703125 55.765625 41.0625 55.515625 
z
" id="DejaVuSans-114"/>
      </defs>
      <use xlink:href="#DejaVuSans-98"/>
      <use x="63.476562" xlink:href="#DejaVuSans-101"/>
      <use x="125" xlink:href="#DejaVuSans-115"/>
      <use x="177.099609" xlink:href="#DejaVuSans-116"/>
      <use x="216.308594" xlink:href="#DejaVuSans-32"/>
      <use x="248.095703" xlink:href="#DejaVuSans-105"/>
      <use x="275.878906" xlink:href="#DejaVuSans-110"/>
      <use x="339.257812" xlink:href="#DejaVuSans-100"/>
      <use x="402.734375" xlink:href="#DejaVuSans-105"/>
      <use x="430.517578" xlink:href="#DejaVuSans-118"/>
      <use x="489.697266" xlink:href="#DejaVuSans-105"/>
      <use x="517.480469" xlink:href="#DejaVuSans-100"/>
      <use x="580.957031" xlink:href="#DejaVuSans-117"/>
      <use x="644.335938" xlink:href="#DejaVuSans-97"/>
      <use x="705.615234" xlink:href="#DejaVuSans-108"/>
      <use x="733.398438" xlink:href="#DejaVuSans-32"/>
      <use x="765.185547" xlink:href="#DejaVuSans-101"/>
      <use x="826.708984" xlink:href="#DejaVuSans-114"/>
      <use x="866.072266" xlink:href="#DejaVuSans-114"/>
      <use x="904.935547" xlink:href="#DejaVuSans-111"/>
      <use x="966.117188" xlink:href="#DejaVuSans-114"/>
     </g>
    </g>
   </g>
   <g id="line2d_11">
    <path clip-path="url(#pb0c0b2e660)" d="M 71.408912 -1 
L 71.453173 5.559075 
L 71.679559 5.559075 
L 71.905945 9.023884 
L 75.754511 9.063208 
L 76.207283 15.892102 
L 77.791986 15.948529 
L 78.018373 18.870122 
L 80.055849 18.870122 
L 80.282235 19.097967 
L 81.640552 19.097967 
L 81.866938 19.364902 
L 85.036345 19.364902 
L 85.262731 20.231776 
L 91.601545 20.337012 
L 91.827931 24.898911 
L 94.31818 24.901099 
L 94.544566 26.345196 
L 94.770952 26.345196 
L 94.997338 27.428963 
L 95.223725 27.428963 
L 95.450111 29.713673 
L 97.034814 29.713673 
L 97.2612 47.543091 
L 97.487587 48.564195 
L 97.940359 60.755834 
L 98.166745 60.755834 
L 98.393132 61.037224 
L 100.430607 61.133081 
L 100.656994 62.590224 
L 103.600014 62.590224 
L 103.826401 69.940034 
L 109.938828 70.033211 
L 110.165214 73.875884 
L 112.655463 73.875884 
L 112.881849 76.457777 
L 116.277642 76.457777 
L 116.504028 88.201855 
L 124.427546 88.234923 
L 124.653932 90.607576 
L 124.880318 94.63095 
L 128.502497 94.63095 
L 128.728884 100.888617 
L 131.219132 100.888617 
L 131.445518 117.849532 
L 141.180125 117.849532 
L 141.406511 118.295206 
L 141.859284 118.295206 
L 142.08567 118.911883 
L 145.028691 118.911883 
L 145.255077 119.153839 
L 146.613394 119.153839 
L 146.83978 119.369097 
L 147.066167 126.553438 
L 147.971711 126.598914 
L 148.198098 129.984395 
L 149.556415 129.984395 
L 149.782801 130.224864 
L 157.479932 130.226669 
L 157.706318 130.616603 
L 161.554884 130.626007 
L 161.78127 133.518957 
L 162.007656 133.518957 
L 162.234043 134.096877 
L 173.779739 134.108282 
L 174.006126 135.025489 
L 179.892167 135.059043 
L 180.118553 135.84244 
L 183.967119 135.846516 
L 184.193505 138.23174 
L 186.457367 138.23174 
L 186.683753 138.485537 
L 207.511285 138.529545 
L 207.737671 142.01275 
L 211.133464 142.013233 
L 211.35985 143.143436 
L 222.226388 143.234305 
L 223.358319 143.261003 
L 235.130402 143.271851 
L 235.356788 143.668121 
L 245.091395 143.776396 
L 245.544168 143.836614 
L 248.260802 143.836614 
L 248.487188 143.973389 
L 248.939961 143.973389 
L 249.166347 144.297543 
L 264.334223 144.403846 
L 265.239768 144.43742 
L 274.295216 144.448205 
L 274.521603 144.949828 
L 284.482596 144.949828 
L 284.482596 144.949828 
" style="fill:none;stroke:#1f77b4;stroke-linecap:square;stroke-width:1.5;"/>
   </g>
   <g id="line2d_12">
    <path clip-path="url(#pb0c0b2e660)" d="M 66.020773 -1 
L 66.925448 182.785387 
L 71.453173 197.038965 
L 75.980897 201.579433 
L 80.508621 202.317499 
L 85.036345 202.602047 
L 89.564069 202.847655 
L 94.091794 203.021109 
L 98.619518 203.04751 
L 103.147242 203.101601 
L 107.674966 203.20141 
L 112.20269 203.212971 
L 116.730414 203.226237 
L 121.258139 203.246757 
L 125.785863 203.279988 
L 130.313587 203.301621 
L 134.841311 203.307296 
L 139.369035 203.310919 
L 143.89676 203.312564 
L 148.424484 203.322022 
L 152.952208 203.322319 
L 157.479932 203.32248 
L 162.007656 203.322653 
L 166.535381 203.322789 
L 171.063105 203.322802 
L 175.590829 203.326325 
L 180.118553 203.326338 
L 184.646277 203.329306 
L 189.174002 203.330864 
L 193.701726 203.33921 
L 198.22945 203.342227 
L 202.757174 203.342239 
L 207.284898 203.342239 
L 211.812623 203.342573 
L 216.340347 203.342635 
L 220.868071 203.342635 
L 225.395795 203.342635 
L 229.923519 203.342635 
L 234.451243 203.342635 
L 238.978968 203.342635 
L 243.506692 203.342685 
L 248.034416 203.342722 
L 252.56214 203.342845 
L 257.089864 203.342845 
L 261.617589 203.342845 
L 266.145313 203.342845 
L 270.673037 203.342957 
L 275.200761 203.342957 
L 279.728485 203.342969 
L 284.25621 203.342969 
L 288.783934 203.342969 
" style="fill:none;stroke:#ff7f0e;stroke-linecap:square;stroke-width:1.5;"/>
   </g>
   <g id="line2d_13">
    <path clip-path="url(#pb0c0b2e660)" d="M 59.811263 -1 
L 60.136126 152.191799 
L 61.270321 152.191799 
L 62.404516 163.429194 
L 64.672906 163.429194 
L 65.807101 181.100064 
L 66.941295 188.867042 
L 68.07549 191.914617 
L 69.209685 191.914617 
L 70.34388 194.643542 
L 71.478075 195.002276 
L 72.61227 197.474213 
L 73.746465 197.474213 
L 74.88066 197.803724 
L 76.014855 198.662737 
L 77.14905 198.662737 
L 78.283245 202.467007 
L 79.417439 203.257482 
L 81.685829 203.326374 
L 103.235533 203.341633 
L 284.706718 203.34308 
L 284.706718 203.34308 
" style="fill:none;stroke:#2ca02c;stroke-linecap:square;stroke-width:1.5;"/>
   </g>
   <g id="patch_3">
    <path d="M 57.87 203.343111 
L 57.87 35.12 
" style="fill:none;stroke:#000000;stroke-linecap:square;stroke-linejoin:miter;stroke-width:0.8;"/>
   </g>
   <g id="patch_4">
    <path d="M 288.783934 203.343111 
L 288.783934 35.12 
" style="fill:none;stroke:#000000;stroke-linecap:square;stroke-linejoin:miter;stroke-width:0.8;"/>
   </g>
   <g id="patch_5">
    <path d="M 57.87 203.343111 
L 288.783934 203.343111 
" style="fill:none;stroke:#000000;stroke-linecap:square;stroke-linejoin:miter;stroke-width:0.8;"/>
   </g>
   <g id="patch_6">
    <path d="M 57.87 35.12 
L 288.783934 35.12 
" style="fill:none;stroke:#000000;stroke-linecap:square;stroke-linejoin:miter;stroke-width:0.8;"/>
   </g>
   <g id="text_13">
    <!-- RastriginLandscape -->
    <g transform="translate(90.958404 29.12)scale(0.168 -0.168)">
     <defs>
      <path d="M 44.390625 34.1875 
Q 47.5625 33.109375 50.5625 29.59375 
Q 53.5625 26.078125 56.59375 19.921875 
L 66.609375 0 
L 56 0 
L 46.6875 18.703125 
Q 43.0625 26.03125 39.671875 28.421875 
Q 36.28125 30.8125 30.421875 30.8125 
L 19.671875 30.8125 
L 19.671875 0 
L 9.8125 0 
L 9.8125 72.90625 
L 32.078125 72.90625 
Q 44.578125 72.90625 50.734375 67.671875 
Q 56.890625 62.453125 56.890625 51.90625 
Q 56.890625 45.015625 53.6875 40.46875 
Q 50.484375 35.9375 44.390625 34.1875 
z
M 19.671875 64.796875 
L 19.671875 38.921875 
L 32.078125 38.921875 
Q 39.203125 38.921875 42.84375 42.21875 
Q 46.484375 45.515625 46.484375 51.90625 
Q 46.484375 58.296875 42.84375 61.546875 
Q 39.203125 64.796875 32.078125 64.796875 
z
" id="DejaVuSans-82"/>
      <path d="M 45.40625 27.984375 
Q 45.40625 37.75 41.375 43.109375 
Q 37.359375 48.484375 30.078125 48.484375 
Q 22.859375 48.484375 18.828125 43.109375 
Q 14.796875 37.75 14.796875 27.984375 
Q 14.796875 18.265625 18.828125 12.890625 
Q 22.859375 7.515625 30.078125 7.515625 
Q 37.359375 7.515625 41.375 12.890625 
Q 45.40625 18.265625 45.40625 27.984375 
z
M 54.390625 6.78125 
Q 54.390625 -7.171875 48.1875 -13.984375 
Q 42 -20.796875 29.203125 -20.796875 
Q 24.46875 -20.796875 20.265625 -20.09375 
Q 16.0625 -19.390625 12.109375 -17.921875 
L 12.109375 -9.1875 
Q 16.0625 -11.328125 19.921875 -12.34375 
Q 23.78125 -13.375 27.78125 -13.375 
Q 36.625 -13.375 41.015625 -8.765625 
Q 45.40625 -4.15625 45.40625 5.171875 
L 45.40625 9.625 
Q 42.625 4.78125 38.28125 2.390625 
Q 33.9375 0 27.875 0 
Q 17.828125 0 11.671875 7.65625 
Q 5.515625 15.328125 5.515625 27.984375 
Q 5.515625 40.671875 11.671875 48.328125 
Q 17.828125 56 27.875 56 
Q 33.9375 56 38.28125 53.609375 
Q 42.625 51.21875 45.40625 46.390625 
L 45.40625 54.6875 
L 54.390625 54.6875 
z
" id="DejaVuSans-103"/>
      <path d="M 9.8125 72.90625 
L 19.671875 72.90625 
L 19.671875 8.296875 
L 55.171875 8.296875 
L 55.171875 0 
L 9.8125 0 
z
" id="DejaVuSans-76"/>
      <path d="M 18.109375 8.203125 
L 18.109375 -20.796875 
L 9.078125 -20.796875 
L 9.078125 54.6875 
L 18.109375 54.6875 
L 18.109375 46.390625 
Q 20.953125 51.265625 25.265625 53.625 
Q 29.59375 56 35.59375 56 
Q 45.5625 56 51.78125 48.09375 
Q 58.015625 40.1875 58.015625 27.296875 
Q 58.015625 14.40625 51.78125 6.484375 
Q 45.5625 -1.421875 35.59375 -1.421875 
Q 29.59375 -1.421875 25.265625 0.953125 
Q 20.953125 3.328125 18.109375 8.203125 
z
M 48.6875 27.296875 
Q 48.6875 37.203125 44.609375 42.84375 
Q 40.53125 48.484375 33.40625 48.484375 
Q 26.265625 48.484375 22.1875 42.84375 
Q 18.109375 37.203125 18.109375 27.296875 
Q 18.109375 17.390625 22.1875 11.75 
Q 26.265625 6.109375 33.40625 6.109375 
Q 40.53125 6.109375 44.609375 11.75 
Q 48.6875 17.390625 48.6875 27.296875 
z
" id="DejaVuSans-112"/>
     </defs>
     <use xlink:href="#DejaVuSans-82"/>
     <use x="67.232422" xlink:href="#DejaVuSans-97"/>
     <use x="128.511719" xlink:href="#DejaVuSans-115"/>
     <use x="180.611328" xlink:href="#DejaVuSans-116"/>
     <use x="219.820312" xlink:href="#DejaVuSans-114"/>
     <use x="260.933594" xlink:href="#DejaVuSans-105"/>
     <use x="288.716797" xlink:href="#DejaVuSans-103"/>
     <use x="352.193359" xlink:href="#DejaVuSans-105"/>
     <use x="379.976562" xlink:href="#DejaVuSans-110"/>
     <use x="443.355469" xlink:href="#DejaVuSans-76"/>
     <use x="499.068359" xlink:href="#DejaVuSans-97"/>
     <use x="560.347656" xlink:href="#DejaVuSans-110"/>
     <use x="623.726562" xlink:href="#DejaVuSans-100"/>
     <use x="687.203125" xlink:href="#DejaVuSans-115"/>
     <use x="739.302734" xlink:href="#DejaVuSans-99"/>
     <use x="794.283203" xlink:href="#DejaVuSans-97"/>
     <use x="855.5625" xlink:href="#DejaVuSans-112"/>
     <use x="919.039062" xlink:href="#DejaVuSans-101"/>
    </g>
   </g>
  </g>
  <g id="axes_2">
   <g id="patch_7">
    <path d="M 377.626963 203.343111 
L 608.540896 203.343111 
L 608.540896 35.12 
L 377.626963 35.12 
z
" style="fill:#ffffff;"/>
   </g>
   <g id="matplotlib.axis_3">
    <g id="xtick_6">
     <g id="line2d_14">
      <g>
       <use style="stroke:#000000;stroke-width:0.8;" x="377.626963" xlink:href="#m5884082668" y="203.343111"/>
      </g>
     </g>
     <g id="text_14">
      <!-- 0 -->
      <g transform="translate(373.173213 220.980924)scale(0.14 -0.14)">
       <use xlink:href="#DejaVuSans-48"/>
      </g>
     </g>
    </g>
    <g id="xtick_7">
     <g id="line2d_15">
      <g>
       <use style="stroke:#000000;stroke-width:0.8;" x="434.783877" xlink:href="#m5884082668" y="203.343111"/>
      </g>
     </g>
     <g id="text_15">
      <!-- 25000 -->
      <g transform="translate(412.515127 220.980924)scale(0.14 -0.14)">
       <use xlink:href="#DejaVuSans-50"/>
       <use x="63.623047" xlink:href="#DejaVuSans-53"/>
       <use x="127.246094" xlink:href="#DejaVuSans-48"/>
       <use x="190.869141" xlink:href="#DejaVuSans-48"/>
       <use x="254.492188" xlink:href="#DejaVuSans-48"/>
      </g>
     </g>
    </g>
    <g id="xtick_8">
     <g id="line2d_16">
      <g>
       <use style="stroke:#000000;stroke-width:0.8;" x="491.940791" xlink:href="#m5884082668" y="203.343111"/>
      </g>
     </g>
     <g id="text_16">
      <!-- 50000 -->
      <g transform="translate(469.672041 220.980924)scale(0.14 -0.14)">
       <use xlink:href="#DejaVuSans-53"/>
       <use x="63.623047" xlink:href="#DejaVuSans-48"/>
       <use x="127.246094" xlink:href="#DejaVuSans-48"/>
       <use x="190.869141" xlink:href="#DejaVuSans-48"/>
       <use x="254.492188" xlink:href="#DejaVuSans-48"/>
      </g>
     </g>
    </g>
    <g id="xtick_9">
     <g id="line2d_17">
      <g>
       <use style="stroke:#000000;stroke-width:0.8;" x="549.097705" xlink:href="#m5884082668" y="203.343111"/>
      </g>
     </g>
     <g id="text_17">
      <!-- 75000 -->
      <g transform="translate(526.828955 220.980924)scale(0.14 -0.14)">
       <use xlink:href="#DejaVuSans-55"/>
       <use x="63.623047" xlink:href="#DejaVuSans-53"/>
       <use x="127.246094" xlink:href="#DejaVuSans-48"/>
       <use x="190.869141" xlink:href="#DejaVuSans-48"/>
       <use x="254.492188" xlink:href="#DejaVuSans-48"/>
      </g>
     </g>
    </g>
    <g id="xtick_10">
     <g id="line2d_18">
      <g>
       <use style="stroke:#000000;stroke-width:0.8;" x="606.25462" xlink:href="#m5884082668" y="203.343111"/>
      </g>
     </g>
     <g id="text_18">
      <!-- 100000 -->
      <g transform="translate(579.53212 220.980924)scale(0.14 -0.14)">
       <use xlink:href="#DejaVuSans-49"/>
       <use x="63.623047" xlink:href="#DejaVuSans-48"/>
       <use x="127.246094" xlink:href="#DejaVuSans-48"/>
       <use x="190.869141" xlink:href="#DejaVuSans-48"/>
       <use x="254.492188" xlink:href="#DejaVuSans-48"/>
       <use x="318.115234" xlink:href="#DejaVuSans-48"/>
      </g>
     </g>
    </g>
    <g id="text_19">
     <!-- function evaluations -->
     <g transform="translate(421.799867 238.530299)scale(0.14 -0.14)">
      <use xlink:href="#DejaVuSans-102"/>
      <use x="35.205078" xlink:href="#DejaVuSans-117"/>
      <use x="98.583984" xlink:href="#DejaVuSans-110"/>
      <use x="161.962891" xlink:href="#DejaVuSans-99"/>
      <use x="216.943359" xlink:href="#DejaVuSans-116"/>
      <use x="256.152344" xlink:href="#DejaVuSans-105"/>
      <use x="283.935547" xlink:href="#DejaVuSans-111"/>
      <use x="345.117188" xlink:href="#DejaVuSans-110"/>
      <use x="408.496094" xlink:href="#DejaVuSans-32"/>
      <use x="440.283203" xlink:href="#DejaVuSans-101"/>
      <use x="501.806641" xlink:href="#DejaVuSans-118"/>
      <use x="560.986328" xlink:href="#DejaVuSans-97"/>
      <use x="622.265625" xlink:href="#DejaVuSans-108"/>
      <use x="650.048828" xlink:href="#DejaVuSans-117"/>
      <use x="713.427734" xlink:href="#DejaVuSans-97"/>
      <use x="774.707031" xlink:href="#DejaVuSans-116"/>
      <use x="813.916016" xlink:href="#DejaVuSans-105"/>
      <use x="841.699219" xlink:href="#DejaVuSans-111"/>
      <use x="902.880859" xlink:href="#DejaVuSans-110"/>
      <use x="966.259766" xlink:href="#DejaVuSans-115"/>
     </g>
    </g>
   </g>
   <g id="matplotlib.axis_4">
    <g id="ytick_6">
     <g id="line2d_19">
      <g>
       <use style="stroke:#000000;stroke-width:0.8;" x="377.626963" xlink:href="#m093f530fc6" y="203.343111"/>
      </g>
     </g>
     <g id="text_20">
      <!-- 0 -->
      <g transform="translate(361.719463 208.662017)scale(0.14 -0.14)">
       <use xlink:href="#DejaVuSans-48"/>
      </g>
     </g>
    </g>
    <g id="ytick_7">
     <g id="line2d_20">
      <g>
       <use style="stroke:#000000;stroke-width:0.8;" x="377.626963" xlink:href="#m093f530fc6" y="161.287333"/>
      </g>
     </g>
     <g id="text_21">
      <!-- 100 -->
      <g transform="translate(343.904463 166.60624)scale(0.14 -0.14)">
       <use xlink:href="#DejaVuSans-49"/>
       <use x="63.623047" xlink:href="#DejaVuSans-48"/>
       <use x="127.246094" xlink:href="#DejaVuSans-48"/>
      </g>
     </g>
    </g>
    <g id="ytick_8">
     <g id="line2d_21">
      <g>
       <use style="stroke:#000000;stroke-width:0.8;" x="377.626963" xlink:href="#m093f530fc6" y="119.231556"/>
      </g>
     </g>
     <g id="text_22">
      <!-- 200 -->
      <g transform="translate(343.904463 124.550462)scale(0.14 -0.14)">
       <use xlink:href="#DejaVuSans-50"/>
       <use x="63.623047" xlink:href="#DejaVuSans-48"/>
       <use x="127.246094" xlink:href="#DejaVuSans-48"/>
      </g>
     </g>
    </g>
    <g id="ytick_9">
     <g id="line2d_22">
      <g>
       <use style="stroke:#000000;stroke-width:0.8;" x="377.626963" xlink:href="#m093f530fc6" y="77.175778"/>
      </g>
     </g>
     <g id="text_23">
      <!-- 300 -->
      <g transform="translate(343.904463 82.494684)scale(0.14 -0.14)">
       <use xlink:href="#DejaVuSans-51"/>
       <use x="63.623047" xlink:href="#DejaVuSans-48"/>
       <use x="127.246094" xlink:href="#DejaVuSans-48"/>
      </g>
     </g>
    </g>
    <g id="ytick_10">
     <g id="line2d_23">
      <g>
       <use style="stroke:#000000;stroke-width:0.8;" x="377.626963" xlink:href="#m093f530fc6" y="35.12"/>
      </g>
     </g>
     <g id="text_24">
      <!-- 400 -->
      <g transform="translate(343.904463 40.438906)scale(0.14 -0.14)">
       <use xlink:href="#DejaVuSans-52"/>
       <use x="63.623047" xlink:href="#DejaVuSans-48"/>
       <use x="127.246094" xlink:href="#DejaVuSans-48"/>
      </g>
     </g>
    </g>
    <g id="text_25">
     <!-- best individual error -->
     <g transform="translate(336.9929 189.737962)rotate(-90)scale(0.14 -0.14)">
      <use xlink:href="#DejaVuSans-98"/>
      <use x="63.476562" xlink:href="#DejaVuSans-101"/>
      <use x="125" xlink:href="#DejaVuSans-115"/>
      <use x="177.099609" xlink:href="#DejaVuSans-116"/>
      <use x="216.308594" xlink:href="#DejaVuSans-32"/>
      <use x="248.095703" xlink:href="#DejaVuSans-105"/>
      <use x="275.878906" xlink:href="#DejaVuSans-110"/>
      <use x="339.257812" xlink:href="#DejaVuSans-100"/>
      <use x="402.734375" xlink:href="#DejaVuSans-105"/>
      <use x="430.517578" xlink:href="#DejaVuSans-118"/>
      <use x="489.697266" xlink:href="#DejaVuSans-105"/>
      <use x="517.480469" xlink:href="#DejaVuSans-100"/>
      <use x="580.957031" xlink:href="#DejaVuSans-117"/>
      <use x="644.335938" xlink:href="#DejaVuSans-97"/>
      <use x="705.615234" xlink:href="#DejaVuSans-108"/>
      <use x="733.398438" xlink:href="#DejaVuSans-32"/>
      <use x="765.185547" xlink:href="#DejaVuSans-101"/>
      <use x="826.708984" xlink:href="#DejaVuSans-114"/>
      <use x="866.072266" xlink:href="#DejaVuSans-114"/>
      <use x="904.935547" xlink:href="#DejaVuSans-111"/>
      <use x="966.117188" xlink:href="#DejaVuSans-114"/>
     </g>
    </g>
   </g>
   <g id="line2d_24">
    <path clip-path="url(#pd33618a9a0)" d="M 389.5259 -1 
L 389.744228 38.330265 
L 389.972856 38.330265 
L 390.201484 39.560407 
L 391.344622 39.560407 
L 391.57325 41.962307 
L 392.030505 41.962307 
L 392.259133 48.840919 
L 393.630899 48.840919 
L 393.859526 53.030265 
L 398.660707 53.105196 
L 398.889335 73.374541 
L 399.117962 73.374541 
L 399.34659 73.71505 
L 400.946984 73.71505 
L 401.175611 74.92081 
L 402.547377 74.92081 
L 402.776005 82.614691 
L 407.805813 82.614691 
L 408.034441 103.885932 
L 408.491696 103.885932 
L 408.720324 104.087222 
L 419.923079 104.147324 
L 420.151707 108.74155 
L 427.925047 108.74155 
L 428.153675 109.194245 
L 428.61093 109.194245 
L 428.839558 110.785007 
L 429.982696 110.785007 
L 430.211324 110.960009 
L 433.183483 110.960009 
L 433.412111 114.730251 
L 436.155643 114.771239 
L 436.38427 115.578341 
L 442.557217 115.578341 
L 442.785845 117.310131 
L 446.21526 117.400476 
L 446.443887 135.743637 
L 448.044281 135.743637 
L 448.501536 136.798856 
L 450.330558 136.809803 
L 450.787813 136.933671 
L 458.332526 136.977318 
L 458.561153 151.089654 
L 459.475664 151.089654 
L 459.704292 153.872692 
L 464.962728 153.946359 
L 465.648611 153.992858 
L 467.70626 153.992858 
L 467.934887 156.15119 
L 469.306653 156.15119 
L 469.535281 166.657995 
L 469.992536 168.100092 
L 470.221164 173.083448 
L 470.678419 173.083448 
L 470.907047 173.87787 
L 471.364302 173.87787 
L 471.59293 175.538483 
L 472.50744 175.546414 
L 472.736068 182.392979 
L 474.107834 182.392979 
L 474.336462 187.920944 
L 475.022345 187.920944 
L 475.250972 188.320286 
L 478.680387 188.39626 
L 478.909015 194.037135 
L 485.310589 194.05672 
L 485.539217 194.609306 
L 488.740004 194.621485 
L 488.968632 195.220975 
L 489.197259 195.220975 
L 489.425887 196.965455 
L 493.769812 197.075756 
L 496.284717 197.086074 
L 496.741972 197.091085 
L 496.9706 200.790815 
L 511.374142 200.899239 
L 511.831397 200.989272 
L 515.946695 200.990775 
L 516.175323 201.467785 
L 525.777684 201.534402 
L 526.006312 201.708528 
L 574.704003 201.805584 
L 574.932631 201.957551 
L 575.847141 201.957551 
L 576.075769 202.398558 
L 606.483247 202.412254 
L 606.483247 202.412254 
" style="fill:none;stroke:#1f77b4;stroke-linecap:square;stroke-width:1.5;"/>
   </g>
   <g id="line2d_25">
    <path clip-path="url(#pd33618a9a0)" d="M 381.874117 -1 
L 382.199516 167.535385 
L 384.485792 197.148804 
L 386.772069 198.276946 
L 389.058345 201.855123 
L 391.344622 202.101712 
L 393.630899 202.102471 
L 395.917175 203.037344 
L 398.203452 203.131894 
L 400.489728 203.195562 
L 402.776005 203.199181 
L 405.062281 203.271907 
L 407.348558 203.336142 
L 409.634835 203.337366 
L 411.921111 203.337707 
L 414.207388 203.337707 
L 416.493664 203.338186 
L 418.779941 203.338414 
L 421.066217 203.338419 
L 423.352494 203.338419 
L 425.638771 203.338543 
L 427.925047 203.339662 
L 430.211324 203.341144 
L 432.4976 203.341409 
L 434.783877 203.341752 
L 437.070153 203.341752 
L 439.35643 203.341819 
L 441.642707 203.341903 
L 443.928983 203.341903 
L 446.21526 203.341923 
L 448.501536 203.341923 
L 450.787813 203.342834 
L 453.074089 203.342913 
L 455.360366 203.342913 
L 457.646643 203.342967 
L 459.932919 203.342967 
L 462.219196 203.342967 
L 464.505472 203.342967 
L 466.791749 203.342967 
L 469.078025 203.342967 
L 471.364302 203.342967 
L 473.650579 203.342967 
L 475.936855 203.342967 
L 478.223132 203.342967 
L 480.509408 203.342967 
L 482.795685 203.342982 
L 485.081961 203.342982 
L 487.368238 203.342982 
L 489.654515 203.342982 
L 491.940791 203.342982 
L 494.227068 203.342982 
L 496.513344 203.342982 
L 498.799621 203.343012 
L 501.085897 203.343012 
L 503.372174 203.343012 
L 505.658451 203.343016 
L 507.944727 203.343016 
L 510.231004 203.343016 
L 512.51728 203.343016 
L 514.803557 203.343016 
L 517.089833 203.343036 
L 519.37611 203.343036 
L 521.662387 203.343036 
L 523.948663 203.343036 
L 526.23494 203.343036 
L 528.521216 203.343036 
L 530.807493 203.343036 
L 533.093769 203.343036 
L 535.380046 203.343036 
L 537.666323 203.343036 
L 539.952599 203.343036 
L 542.238876 203.343036 
L 544.525152 203.343036 
L 546.811429 203.343041 
L 549.097705 203.343041 
L 551.383982 203.343041 
L 553.670259 203.343041 
L 555.956535 203.343041 
L 558.242812 203.343041 
L 560.529088 203.343041 
L 562.815365 203.343041 
L 565.101641 203.343041 
L 567.387918 203.343041 
L 569.674195 203.343041 
L 571.960471 203.343041 
L 574.246748 203.343041 
L 576.533024 203.343041 
L 578.819301 203.343041 
L 581.105577 203.343041 
L 583.391854 203.343041 
L 585.678131 203.343041 
L 587.964407 203.343041 
L 590.250684 203.343041 
L 592.53696 203.343041 
L 594.823237 203.343041 
L 597.109513 203.343041 
L 599.39579 203.343041 
L 601.682067 203.343041 
L 603.968343 203.343041 
L 606.25462 203.343041 
L 608.540896 203.343041 
" style="fill:none;stroke:#ff7f0e;stroke-linecap:square;stroke-width:1.5;"/>
   </g>
   <g id="line2d_26">
    <path clip-path="url(#pd33618a9a0)" d="M 379.22149 -1 
L 379.462843 72.152885 
L 379.922384 128.954977 
L 380.381926 128.954977 
L 380.841467 155.226146 
L 381.301009 162.734585 
L 382.220092 162.734585 
L 382.679634 178.542171 
L 383.139175 178.542171 
L 383.598717 181.451386 
L 384.058259 181.451386 
L 384.5178 200.300334 
L 384.977342 201.048802 
L 385.436883 201.048802 
L 385.896425 201.893365 
L 389.113216 201.893365 
L 389.572758 202.444383 
L 393.24909 202.654222 
L 393.708632 203.167591 
L 396.925423 203.189481 
L 477.804743 203.297396 
L 479.183368 203.342304 
L 606.476389 203.343032 
L 606.476389 203.343032 
" style="fill:none;stroke:#2ca02c;stroke-linecap:square;stroke-width:1.5;"/>
   </g>
   <g id="patch_8">
    <path d="M 377.626963 203.343111 
L 377.626963 35.12 
" style="fill:none;stroke:#000000;stroke-linecap:square;stroke-linejoin:miter;stroke-width:0.8;"/>
   </g>
   <g id="patch_9">
    <path d="M 608.540896 203.343111 
L 608.540896 35.12 
" style="fill:none;stroke:#000000;stroke-linecap:square;stroke-linejoin:miter;stroke-width:0.8;"/>
   </g>
   <g id="patch_10">
    <path d="M 377.626963 203.343111 
L 608.540896 203.343111 
" style="fill:none;stroke:#000000;stroke-linecap:square;stroke-linejoin:miter;stroke-width:0.8;"/>
   </g>
   <g id="patch_11">
    <path d="M 377.626963 35.12 
L 608.540896 35.12 
" style="fill:none;stroke:#000000;stroke-linecap:square;stroke-linejoin:miter;stroke-width:0.8;"/>
   </g>
   <g id="text_26">
    <!-- SchwefelLandscape -->
    <g transform="translate(410.183804 29.12)scale(0.168 -0.168)">
     <defs>
      <path d="M 53.515625 70.515625 
L 53.515625 60.890625 
Q 47.90625 63.578125 42.921875 64.890625 
Q 37.9375 66.21875 33.296875 66.21875 
Q 25.25 66.21875 20.875 63.09375 
Q 16.5 59.96875 16.5 54.203125 
Q 16.5 49.359375 19.40625 46.890625 
Q 22.3125 44.4375 30.421875 42.921875 
L 36.375 41.703125 
Q 47.40625 39.59375 52.65625 34.296875 
Q 57.90625 29 57.90625 20.125 
Q 57.90625 9.515625 50.796875 4.046875 
Q 43.703125 -1.421875 29.984375 -1.421875 
Q 24.8125 -1.421875 18.96875 -0.25 
Q 13.140625 0.921875 6.890625 3.21875 
L 6.890625 13.375 
Q 12.890625 10.015625 18.65625 8.296875 
Q 24.421875 6.59375 29.984375 6.59375 
Q 38.421875 6.59375 43.015625 9.90625 
Q 47.609375 13.234375 47.609375 19.390625 
Q 47.609375 24.75 44.3125 27.78125 
Q 41.015625 30.8125 33.5 32.328125 
L 27.484375 33.5 
Q 16.453125 35.6875 11.515625 40.375 
Q 6.59375 45.0625 6.59375 53.421875 
Q 6.59375 63.09375 13.40625 68.65625 
Q 20.21875 74.21875 32.171875 74.21875 
Q 37.3125 74.21875 42.625 73.28125 
Q 47.953125 72.359375 53.515625 70.515625 
z
" id="DejaVuSans-83"/>
      <path d="M 54.890625 33.015625 
L 54.890625 0 
L 45.90625 0 
L 45.90625 32.71875 
Q 45.90625 40.484375 42.875 44.328125 
Q 39.84375 48.1875 33.796875 48.1875 
Q 26.515625 48.1875 22.3125 43.546875 
Q 18.109375 38.921875 18.109375 30.90625 
L 18.109375 0 
L 9.078125 0 
L 9.078125 75.984375 
L 18.109375 75.984375 
L 18.109375 46.1875 
Q 21.34375 51.125 25.703125 53.5625 
Q 30.078125 56 35.796875 56 
Q 45.21875 56 50.046875 50.171875 
Q 54.890625 44.34375 54.890625 33.015625 
z
" id="DejaVuSans-104"/>
      <path d="M 4.203125 54.6875 
L 13.1875 54.6875 
L 24.421875 12.015625 
L 35.59375 54.6875 
L 46.1875 54.6875 
L 57.421875 12.015625 
L 68.609375 54.6875 
L 77.59375 54.6875 
L 63.28125 0 
L 52.6875 0 
L 40.921875 44.828125 
L 29.109375 0 
L 18.5 0 
z
" id="DejaVuSans-119"/>
     </defs>
     <use xlink:href="#DejaVuSans-83"/>
     <use x="63.476562" xlink:href="#DejaVuSans-99"/>
     <use x="118.457031" xlink:href="#DejaVuSans-104"/>
     <use x="181.835938" xlink:href="#DejaVuSans-119"/>
     <use x="263.623047" xlink:href="#DejaVuSans-101"/>
     <use x="325.146484" xlink:href="#DejaVuSans-102"/>
     <use x="360.351562" xlink:href="#DejaVuSans-101"/>
     <use x="421.875" xlink:href="#DejaVuSans-108"/>
     <use x="449.658203" xlink:href="#DejaVuSans-76"/>
     <use x="505.371094" xlink:href="#DejaVuSans-97"/>
     <use x="566.650391" xlink:href="#DejaVuSans-110"/>
     <use x="630.029297" xlink:href="#DejaVuSans-100"/>
     <use x="693.505859" xlink:href="#DejaVuSans-115"/>
     <use x="745.605469" xlink:href="#DejaVuSans-99"/>
     <use x="800.585938" xlink:href="#DejaVuSans-97"/>
     <use x="861.865234" xlink:href="#DejaVuSans-112"/>
     <use x="925.341797" xlink:href="#DejaVuSans-101"/>
    </g>
   </g>
  </g>
  <g id="axes_3">
   <g id="patch_12">
    <path d="M 57.87 432 
L 288.783934 432 
L 288.783934 263.776889 
L 57.87 263.776889 
z
" style="fill:#ffffff;"/>
   </g>
   <g id="matplotlib.axis_5">
    <g id="xtick_11">
     <g id="line2d_27">
      <g>
       <use style="stroke:#000000;stroke-width:0.8;" x="57.87" xlink:href="#m5884082668" y="432"/>
      </g>
     </g>
     <g id="text_27">
      <!-- 0 -->
      <g transform="translate(53.41625 449.637812)scale(0.14 -0.14)">
       <use xlink:href="#DejaVuSans-48"/>
      </g>
     </g>
    </g>
    <g id="xtick_12">
     <g id="line2d_28">
      <g>
       <use style="stroke:#000000;stroke-width:0.8;" x="115.026914" xlink:href="#m5884082668" y="432"/>
      </g>
     </g>
     <g id="text_28">
      <!-- 25000 -->
      <g transform="translate(92.758164 449.637812)scale(0.14 -0.14)">
       <use xlink:href="#DejaVuSans-50"/>
       <use x="63.623047" xlink:href="#DejaVuSans-53"/>
       <use x="127.246094" xlink:href="#DejaVuSans-48"/>
       <use x="190.869141" xlink:href="#DejaVuSans-48"/>
       <use x="254.492188" xlink:href="#DejaVuSans-48"/>
      </g>
     </g>
    </g>
    <g id="xtick_13">
     <g id="line2d_29">
      <g>
       <use style="stroke:#000000;stroke-width:0.8;" x="172.183829" xlink:href="#m5884082668" y="432"/>
      </g>
     </g>
     <g id="text_29">
      <!-- 50000 -->
      <g transform="translate(149.915079 449.637812)scale(0.14 -0.14)">
       <use xlink:href="#DejaVuSans-53"/>
       <use x="63.623047" xlink:href="#DejaVuSans-48"/>
       <use x="127.246094" xlink:href="#DejaVuSans-48"/>
       <use x="190.869141" xlink:href="#DejaVuSans-48"/>
       <use x="254.492188" xlink:href="#DejaVuSans-48"/>
      </g>
     </g>
    </g>
    <g id="xtick_14">
     <g id="line2d_30">
      <g>
       <use style="stroke:#000000;stroke-width:0.8;" x="229.340743" xlink:href="#m5884082668" y="432"/>
      </g>
     </g>
     <g id="text_30">
      <!-- 75000 -->
      <g transform="translate(207.071993 449.637812)scale(0.14 -0.14)">
       <use xlink:href="#DejaVuSans-55"/>
       <use x="63.623047" xlink:href="#DejaVuSans-53"/>
       <use x="127.246094" xlink:href="#DejaVuSans-48"/>
       <use x="190.869141" xlink:href="#DejaVuSans-48"/>
       <use x="254.492188" xlink:href="#DejaVuSans-48"/>
      </g>
     </g>
    </g>
    <g id="xtick_15">
     <g id="line2d_31">
      <g>
       <use style="stroke:#000000;stroke-width:0.8;" x="286.497657" xlink:href="#m5884082668" y="432"/>
      </g>
     </g>
     <g id="text_31">
      <!-- 100000 -->
      <g transform="translate(259.775157 449.637812)scale(0.14 -0.14)">
       <use xlink:href="#DejaVuSans-49"/>
       <use x="63.623047" xlink:href="#DejaVuSans-48"/>
       <use x="127.246094" xlink:href="#DejaVuSans-48"/>
       <use x="190.869141" xlink:href="#DejaVuSans-48"/>
       <use x="254.492188" xlink:href="#DejaVuSans-48"/>
       <use x="318.115234" xlink:href="#DejaVuSans-48"/>
      </g>
     </g>
    </g>
    <g id="text_32">
     <!-- function evaluations -->
     <g transform="translate(102.042904 467.187187)scale(0.14 -0.14)">
      <use xlink:href="#DejaVuSans-102"/>
      <use x="35.205078" xlink:href="#DejaVuSans-117"/>
      <use x="98.583984" xlink:href="#DejaVuSans-110"/>
      <use x="161.962891" xlink:href="#DejaVuSans-99"/>
      <use x="216.943359" xlink:href="#DejaVuSans-116"/>
      <use x="256.152344" xlink:href="#DejaVuSans-105"/>
      <use x="283.935547" xlink:href="#DejaVuSans-111"/>
      <use x="345.117188" xlink:href="#DejaVuSans-110"/>
      <use x="408.496094" xlink:href="#DejaVuSans-32"/>
      <use x="440.283203" xlink:href="#DejaVuSans-101"/>
      <use x="501.806641" xlink:href="#DejaVuSans-118"/>
      <use x="560.986328" xlink:href="#DejaVuSans-97"/>
      <use x="622.265625" xlink:href="#DejaVuSans-108"/>
      <use x="650.048828" xlink:href="#DejaVuSans-117"/>
      <use x="713.427734" xlink:href="#DejaVuSans-97"/>
      <use x="774.707031" xlink:href="#DejaVuSans-116"/>
      <use x="813.916016" xlink:href="#DejaVuSans-105"/>
      <use x="841.699219" xlink:href="#DejaVuSans-111"/>
      <use x="902.880859" xlink:href="#DejaVuSans-110"/>
      <use x="966.259766" xlink:href="#DejaVuSans-115"/>
     </g>
    </g>
   </g>
   <g id="matplotlib.axis_6">
    <g id="ytick_11">
     <g id="line2d_32">
      <g>
       <use style="stroke:#000000;stroke-width:0.8;" x="57.87" xlink:href="#m093f530fc6" y="432"/>
      </g>
     </g>
     <g id="text_33">
      <!-- 0 -->
      <g transform="translate(41.9625 437.318906)scale(0.14 -0.14)">
       <use xlink:href="#DejaVuSans-48"/>
      </g>
     </g>
    </g>
    <g id="ytick_12">
     <g id="line2d_33">
      <g>
       <use style="stroke:#000000;stroke-width:0.8;" x="57.87" xlink:href="#m093f530fc6" y="389.944222"/>
      </g>
     </g>
     <g id="text_34">
      <!-- 2 -->
      <g transform="translate(41.9625 395.263128)scale(0.14 -0.14)">
       <use xlink:href="#DejaVuSans-50"/>
      </g>
     </g>
    </g>
    <g id="ytick_13">
     <g id="line2d_34">
      <g>
       <use style="stroke:#000000;stroke-width:0.8;" x="57.87" xlink:href="#m093f530fc6" y="347.888444"/>
      </g>
     </g>
     <g id="text_35">
      <!-- 4 -->
      <g transform="translate(41.9625 353.207351)scale(0.14 -0.14)">
       <use xlink:href="#DejaVuSans-52"/>
      </g>
     </g>
    </g>
    <g id="ytick_14">
     <g id="line2d_35">
      <g>
       <use style="stroke:#000000;stroke-width:0.8;" x="57.87" xlink:href="#m093f530fc6" y="305.832667"/>
      </g>
     </g>
     <g id="text_36">
      <!-- 6 -->
      <g transform="translate(41.9625 311.151573)scale(0.14 -0.14)">
       <defs>
        <path d="M 33.015625 40.375 
Q 26.375 40.375 22.484375 35.828125 
Q 18.609375 31.296875 18.609375 23.390625 
Q 18.609375 15.53125 22.484375 10.953125 
Q 26.375 6.390625 33.015625 6.390625 
Q 39.65625 6.390625 43.53125 10.953125 
Q 47.40625 15.53125 47.40625 23.390625 
Q 47.40625 31.296875 43.53125 35.828125 
Q 39.65625 40.375 33.015625 40.375 
z
M 52.59375 71.296875 
L 52.59375 62.3125 
Q 48.875 64.0625 45.09375 64.984375 
Q 41.3125 65.921875 37.59375 65.921875 
Q 27.828125 65.921875 22.671875 59.328125 
Q 17.53125 52.734375 16.796875 39.40625 
Q 19.671875 43.65625 24.015625 45.921875 
Q 28.375 48.1875 33.59375 48.1875 
Q 44.578125 48.1875 50.953125 41.515625 
Q 57.328125 34.859375 57.328125 23.390625 
Q 57.328125 12.15625 50.6875 5.359375 
Q 44.046875 -1.421875 33.015625 -1.421875 
Q 20.359375 -1.421875 13.671875 8.265625 
Q 6.984375 17.96875 6.984375 36.375 
Q 6.984375 53.65625 15.1875 63.9375 
Q 23.390625 74.21875 37.203125 74.21875 
Q 40.921875 74.21875 44.703125 73.484375 
Q 48.484375 72.75 52.59375 71.296875 
z
" id="DejaVuSans-54"/>
       </defs>
       <use xlink:href="#DejaVuSans-54"/>
      </g>
     </g>
    </g>
    <g id="ytick_15">
     <g id="line2d_36">
      <g>
       <use style="stroke:#000000;stroke-width:0.8;" x="57.87" xlink:href="#m093f530fc6" y="263.776889"/>
      </g>
     </g>
     <g id="text_37">
      <!-- 8 -->
      <g transform="translate(41.9625 269.095795)scale(0.14 -0.14)">
       <defs>
        <path d="M 31.78125 34.625 
Q 24.75 34.625 20.71875 30.859375 
Q 16.703125 27.09375 16.703125 20.515625 
Q 16.703125 13.921875 20.71875 10.15625 
Q 24.75 6.390625 31.78125 6.390625 
Q 38.8125 6.390625 42.859375 10.171875 
Q 46.921875 13.96875 46.921875 20.515625 
Q 46.921875 27.09375 42.890625 30.859375 
Q 38.875 34.625 31.78125 34.625 
z
M 21.921875 38.8125 
Q 15.578125 40.375 12.03125 44.71875 
Q 8.5 49.078125 8.5 55.328125 
Q 8.5 64.0625 14.71875 69.140625 
Q 20.953125 74.21875 31.78125 74.21875 
Q 42.671875 74.21875 48.875 69.140625 
Q 55.078125 64.0625 55.078125 55.328125 
Q 55.078125 49.078125 51.53125 44.71875 
Q 48 40.375 41.703125 38.8125 
Q 48.828125 37.15625 52.796875 32.3125 
Q 56.78125 27.484375 56.78125 20.515625 
Q 56.78125 9.90625 50.3125 4.234375 
Q 43.84375 -1.421875 31.78125 -1.421875 
Q 19.734375 -1.421875 13.25 4.234375 
Q 6.78125 9.90625 6.78125 20.515625 
Q 6.78125 27.484375 10.78125 32.3125 
Q 14.796875 37.15625 21.921875 38.8125 
z
M 18.3125 54.390625 
Q 18.3125 48.734375 21.84375 45.5625 
Q 25.390625 42.390625 31.78125 42.390625 
Q 38.140625 42.390625 41.71875 45.5625 
Q 45.3125 48.734375 45.3125 54.390625 
Q 45.3125 60.0625 41.71875 63.234375 
Q 38.140625 66.40625 31.78125 66.40625 
Q 25.390625 66.40625 21.84375 63.234375 
Q 18.3125 60.0625 18.3125 54.390625 
z
" id="DejaVuSans-56"/>
       </defs>
       <use xlink:href="#DejaVuSans-56"/>
      </g>
     </g>
    </g>
    <g id="text_38">
     <!-- best individual error -->
     <g transform="translate(35.050938 418.394851)rotate(-90)scale(0.14 -0.14)">
      <use xlink:href="#DejaVuSans-98"/>
      <use x="63.476562" xlink:href="#DejaVuSans-101"/>
      <use x="125" xlink:href="#DejaVuSans-115"/>
      <use x="177.099609" xlink:href="#DejaVuSans-116"/>
      <use x="216.308594" xlink:href="#DejaVuSans-32"/>
      <use x="248.095703" xlink:href="#DejaVuSans-105"/>
      <use x="275.878906" xlink:href="#DejaVuSans-110"/>
      <use x="339.257812" xlink:href="#DejaVuSans-100"/>
      <use x="402.734375" xlink:href="#DejaVuSans-105"/>
      <use x="430.517578" xlink:href="#DejaVuSans-118"/>
      <use x="489.697266" xlink:href="#DejaVuSans-105"/>
      <use x="517.480469" xlink:href="#DejaVuSans-100"/>
      <use x="580.957031" xlink:href="#DejaVuSans-117"/>
      <use x="644.335938" xlink:href="#DejaVuSans-97"/>
      <use x="705.615234" xlink:href="#DejaVuSans-108"/>
      <use x="733.398438" xlink:href="#DejaVuSans-32"/>
      <use x="765.185547" xlink:href="#DejaVuSans-101"/>
      <use x="826.708984" xlink:href="#DejaVuSans-114"/>
      <use x="866.072266" xlink:href="#DejaVuSans-114"/>
      <use x="904.935547" xlink:href="#DejaVuSans-111"/>
      <use x="966.117188" xlink:href="#DejaVuSans-114"/>
     </g>
    </g>
   </g>
   <g id="line2d_37">
    <path clip-path="url(#p7be88ef6e1)" d="M 64.470525 -1 
L 64.500202 21.151048 
L 64.957457 21.151048 
L 65.186085 83.434329 
L 65.414713 83.434329 
L 65.64334 91.220447 
L 66.100596 91.220447 
L 66.329223 151.968732 
L 66.557851 159.346011 
L 67.929617 159.432636 
L 68.158245 164.846643 
L 68.386872 245.629319 
L 70.215893 245.629319 
L 70.444521 247.371969 
L 71.359032 247.371969 
L 71.587659 252.512507 
L 72.959425 252.512507 
L 73.188053 263.173978 
L 73.645308 263.173978 
L 73.873936 364.014793 
L 77.531979 364.026031 
L 77.760606 365.600688 
L 79.589627 365.600688 
L 79.818255 366.415556 
L 80.046883 366.415556 
L 80.27551 378.882401 
L 80.732766 378.882401 
L 80.961393 382.639434 
L 85.762574 382.639434 
L 85.991202 383.105039 
L 86.219829 386.863461 
L 87.591595 386.863461 
L 87.820223 387.405819 
L 90.1065 387.405819 
L 90.335127 391.347472 
L 91.478266 391.347472 
L 91.706893 393.613248 
L 92.850032 393.613248 
L 93.078659 397.233405 
L 98.565723 397.233968 
L 98.794351 400.142868 
L 100.166117 400.147318 
L 100.394744 400.495583 
L 101.080627 400.50748 
L 101.537883 403.014623 
L 101.995138 403.133052 
L 103.138276 403.133052 
L 103.366904 404.314234 
L 112.283382 404.314234 
L 112.51201 404.998756 
L 113.883776 404.998756 
L 114.112404 405.367871 
L 123.25751 405.420837 
L 123.714765 405.483279 
L 127.830063 405.527109 
L 128.058691 405.839151 
L 129.430457 405.85432 
L 129.659084 406.20997 
L 151.835967 406.232951 
L 152.064595 406.625701 
L 160.981073 406.653562 
L 161.438329 406.754617 
L 164.410488 406.865372 
L 181.78619 407.211743 
L 182.014818 408.241831 
L 182.243446 408.722417 
L 185.444233 408.75251 
L 185.67286 409.277374 
L 186.358743 409.326939 
L 186.815999 409.326939 
L 187.044626 410.035634 
L 203.963073 410.11627 
L 204.877584 410.153185 
L 207.621115 410.153185 
L 207.849743 410.567953 
L 221.79603 410.567953 
L 222.024658 411.891766 
L 234.370551 411.891766 
L 234.599179 412.19527 
L 236.656828 412.19527 
L 236.885456 414.185671 
L 245.116051 414.239763 
L 245.344679 414.909894 
L 261.348615 414.909894 
L 261.577243 415.374578 
L 262.034498 415.374578 
L 262.263126 419.807206 
L 265.006657 419.807206 
L 265.235285 420.888335 
L 272.779998 420.918366 
L 273.237253 421.01343 
L 273.465881 423.048246 
L 274.380391 423.048246 
L 274.609019 423.272998 
L 275.52353 423.302026 
L 277.809806 423.302026 
L 278.038434 423.528359 
L 286.726285 423.528359 
L 286.726285 423.528359 
" style="fill:none;stroke:#1f77b4;stroke-linecap:square;stroke-width:1.5;"/>
   </g>
   <g id="line2d_38">
    <path clip-path="url(#p7be88ef6e1)" d="M 62.279143 -1 
L 62.442553 416.96713 
L 64.72883 401.189087 
L 67.015106 407.243122 
L 69.301383 404.595412 
L 71.587659 409.724096 
L 73.873936 409.539453 
L 76.160213 410.16158 
L 78.446489 410.292396 
L 80.732766 412.419301 
L 83.019042 413.678306 
L 85.305319 422.061193 
L 87.591595 423.395313 
L 89.877872 426.004889 
L 92.164149 426.004889 
L 94.450425 426.013252 
L 96.736702 426.239157 
L 99.022978 426.328925 
L 101.309255 427.232021 
L 103.595531 428.180199 
L 105.881808 428.186911 
L 108.168085 428.610552 
L 110.454361 428.624558 
L 112.740638 428.787441 
L 115.026914 429.285608 
L 117.313191 429.424583 
L 119.599467 429.424583 
L 121.885744 429.426442 
L 124.172021 429.426442 
L 126.458297 429.426442 
L 128.744574 429.426442 
L 131.03085 429.426442 
L 133.317127 429.426442 
L 135.603403 429.458365 
L 137.88968 429.458365 
L 140.175957 429.458365 
L 142.462233 429.459164 
L 144.74851 429.473887 
L 147.034786 429.484287 
L 149.321063 429.484287 
L 151.607339 429.484287 
L 153.893616 429.485529 
L 156.179893 429.485529 
L 158.466169 429.506659 
L 160.752446 429.512411 
L 163.038722 429.513465 
L 165.324999 429.513465 
L 167.611275 429.514124 
L 169.897552 429.514124 
L 172.183829 429.514124 
L 174.470105 429.514124 
L 176.756382 429.514124 
L 179.042658 429.514124 
L 181.328935 429.514124 
L 183.615211 429.514124 
L 185.901488 429.514124 
L 188.187765 429.514124 
L 190.474041 429.514124 
L 192.760318 429.514124 
L 195.046594 429.514124 
L 197.332871 429.514124 
L 199.619147 429.514124 
L 201.905424 429.514124 
L 204.191701 429.514124 
L 206.477977 429.514124 
L 208.764254 429.514124 
L 211.05053 429.514124 
L 213.336807 429.514124 
L 215.623083 429.514124 
L 217.90936 429.514124 
L 220.195637 429.514124 
L 222.481913 429.514124 
L 224.76819 429.514124 
L 227.054466 429.514124 
L 229.340743 429.515457 
L 231.627019 429.515457 
L 233.913296 429.515457 
L 236.199573 429.515457 
L 238.485849 429.515457 
L 240.772126 429.515457 
L 243.058402 429.515457 
L 245.344679 429.515457 
L 247.630955 429.515457 
L 249.917232 429.515457 
L 252.203509 429.515457 
L 254.489785 429.515457 
L 256.776062 429.515457 
L 259.062338 429.515457 
L 261.348615 429.51606 
L 263.634891 429.51606 
L 265.921168 429.516584 
L 268.207445 429.516584 
L 270.493721 429.516584 
L 272.779998 429.516584 
L 275.066274 429.516584 
L 277.352551 429.516584 
L 279.638827 429.516584 
L 281.925104 429.517029 
L 284.211381 429.517029 
L 286.497657 429.517029 
L 288.783934 429.517029 
" style="fill:none;stroke:#ff7f0e;stroke-linecap:square;stroke-width:1.5;"/>
   </g>
   <g id="line2d_39">
    <path clip-path="url(#p7be88ef6e1)" d="M 58.766169 -1 
L 58.786797 110.417665 
L 59.246338 271.048676 
L 59.70588 378.325104 
L 61.544046 378.325104 
L 62.003588 405.000287 
L 64.301296 405.000287 
L 64.760838 408.950771 
L 65.220379 408.950771 
L 65.679921 410.193156 
L 67.977629 410.193156 
L 68.896712 410.548635 
L 77.168461 410.548635 
L 77.628002 411.442669 
L 90.495167 411.536532 
L 90.954708 412.274067 
L 91.873791 412.335388 
L 104.281414 412.335388 
L 104.740956 412.765434 
L 105.200498 412.765434 
L 105.660039 414.814666 
L 107.957747 414.814666 
L 108.417289 419.671778 
L 109.336372 421.094711 
L 109.795914 421.094711 
L 110.255455 421.45138 
L 113.472246 421.45138 
L 113.931788 422.593484 
L 114.850871 422.593484 
L 115.310413 423.30622 
L 116.689037 423.30622 
L 117.148579 425.613678 
L 122.663078 425.613678 
L 123.12262 425.90291 
L 126.798952 425.90291 
L 127.258494 426.342293 
L 127.718036 426.547858 
L 130.475285 426.547858 
L 130.934827 427.338086 
L 134.151618 427.338086 
L 134.611159 427.476783 
L 141.963825 427.554016 
L 142.423366 427.704534 
L 143.801991 427.716981 
L 144.721074 428.008945 
L 145.640158 428.008945 
L 146.099699 428.169904 
L 167.238612 428.220889 
L 168.157696 428.767688 
L 178.267611 428.851305 
L 178.727152 429.977657 
L 206.759189 429.977657 
L 207.218731 430.162857 
L 215.950021 430.261083 
L 216.409563 430.581333 
L 221.004979 430.605409 
L 221.924062 430.715467 
L 286.719426 430.719007 
L 286.719426 430.719007 
" style="fill:none;stroke:#2ca02c;stroke-linecap:square;stroke-width:1.5;"/>
   </g>
   <g id="patch_13">
    <path d="M 57.87 432 
L 57.87 263.776889 
" style="fill:none;stroke:#000000;stroke-linecap:square;stroke-linejoin:miter;stroke-width:0.8;"/>
   </g>
   <g id="patch_14">
    <path d="M 288.783934 432 
L 288.783934 263.776889 
" style="fill:none;stroke:#000000;stroke-linecap:square;stroke-linejoin:miter;stroke-width:0.8;"/>
   </g>
   <g id="patch_15">
    <path d="M 57.87 432 
L 288.783934 432 
" style="fill:none;stroke:#000000;stroke-linecap:square;stroke-linejoin:miter;stroke-width:0.8;"/>
   </g>
   <g id="patch_16">
    <path d="M 57.87 263.776889 
L 288.783934 263.776889 
" style="fill:none;stroke:#000000;stroke-linecap:square;stroke-linejoin:miter;stroke-width:0.8;"/>
   </g>
   <g id="text_39">
    <!-- GriewangkLandscape -->
    <g transform="translate(83.197592 257.776889)scale(0.168 -0.168)">
     <defs>
      <path d="M 59.515625 10.40625 
L 59.515625 29.984375 
L 43.40625 29.984375 
L 43.40625 38.09375 
L 69.28125 38.09375 
L 69.28125 6.78125 
Q 63.578125 2.734375 56.6875 0.65625 
Q 49.8125 -1.421875 42 -1.421875 
Q 24.90625 -1.421875 15.25 8.5625 
Q 5.609375 18.5625 5.609375 36.375 
Q 5.609375 54.25 15.25 64.234375 
Q 24.90625 74.21875 42 74.21875 
Q 49.125 74.21875 55.546875 72.453125 
Q 61.96875 70.703125 67.390625 67.28125 
L 67.390625 56.78125 
Q 61.921875 61.421875 55.765625 63.765625 
Q 49.609375 66.109375 42.828125 66.109375 
Q 29.4375 66.109375 22.71875 58.640625 
Q 16.015625 51.171875 16.015625 36.375 
Q 16.015625 21.625 22.71875 14.15625 
Q 29.4375 6.6875 42.828125 6.6875 
Q 48.046875 6.6875 52.140625 7.59375 
Q 56.25 8.5 59.515625 10.40625 
z
" id="DejaVuSans-71"/>
      <path d="M 9.078125 75.984375 
L 18.109375 75.984375 
L 18.109375 31.109375 
L 44.921875 54.6875 
L 56.390625 54.6875 
L 27.390625 29.109375 
L 57.625 0 
L 45.90625 0 
L 18.109375 26.703125 
L 18.109375 0 
L 9.078125 0 
z
" id="DejaVuSans-107"/>
     </defs>
     <use xlink:href="#DejaVuSans-71"/>
     <use x="77.490234" xlink:href="#DejaVuSans-114"/>
     <use x="118.603516" xlink:href="#DejaVuSans-105"/>
     <use x="146.386719" xlink:href="#DejaVuSans-101"/>
     <use x="207.910156" xlink:href="#DejaVuSans-119"/>
     <use x="289.697266" xlink:href="#DejaVuSans-97"/>
     <use x="350.976562" xlink:href="#DejaVuSans-110"/>
     <use x="414.355469" xlink:href="#DejaVuSans-103"/>
     <use x="477.832031" xlink:href="#DejaVuSans-107"/>
     <use x="535.742188" xlink:href="#DejaVuSans-76"/>
     <use x="591.455078" xlink:href="#DejaVuSans-97"/>
     <use x="652.734375" xlink:href="#DejaVuSans-110"/>
     <use x="716.113281" xlink:href="#DejaVuSans-100"/>
     <use x="779.589844" xlink:href="#DejaVuSans-115"/>
     <use x="831.689453" xlink:href="#DejaVuSans-99"/>
     <use x="886.669922" xlink:href="#DejaVuSans-97"/>
     <use x="947.949219" xlink:href="#DejaVuSans-112"/>
     <use x="1011.425781" xlink:href="#DejaVuSans-101"/>
    </g>
   </g>
  </g>
  <g id="axes_4">
   <g id="patch_17">
    <path d="M 377.626963 432 
L 608.540896 432 
L 608.540896 263.776889 
L 377.626963 263.776889 
z
" style="fill:#ffffff;"/>
   </g>
   <g id="matplotlib.axis_7">
    <g id="xtick_16">
     <g id="line2d_40">
      <g>
       <use style="stroke:#000000;stroke-width:0.8;" x="377.626963" xlink:href="#m5884082668" y="432"/>
      </g>
     </g>
     <g id="text_40">
      <!-- 0 -->
      <g transform="translate(373.173213 449.637812)scale(0.14 -0.14)">
       <use xlink:href="#DejaVuSans-48"/>
      </g>
     </g>
    </g>
    <g id="xtick_17">
     <g id="line2d_41">
      <g>
       <use style="stroke:#000000;stroke-width:0.8;" x="434.223515" xlink:href="#m5884082668" y="432"/>
      </g>
     </g>
     <g id="text_41">
      <!-- 25000 -->
      <g transform="translate(411.954765 449.637812)scale(0.14 -0.14)">
       <use xlink:href="#DejaVuSans-50"/>
       <use x="63.623047" xlink:href="#DejaVuSans-53"/>
       <use x="127.246094" xlink:href="#DejaVuSans-48"/>
       <use x="190.869141" xlink:href="#DejaVuSans-48"/>
       <use x="254.492188" xlink:href="#DejaVuSans-48"/>
      </g>
     </g>
    </g>
    <g id="xtick_18">
     <g id="line2d_42">
      <g>
       <use style="stroke:#000000;stroke-width:0.8;" x="490.820067" xlink:href="#m5884082668" y="432"/>
      </g>
     </g>
     <g id="text_42">
      <!-- 50000 -->
      <g transform="translate(468.551317 449.637812)scale(0.14 -0.14)">
       <use xlink:href="#DejaVuSans-53"/>
       <use x="63.623047" xlink:href="#DejaVuSans-48"/>
       <use x="127.246094" xlink:href="#DejaVuSans-48"/>
       <use x="190.869141" xlink:href="#DejaVuSans-48"/>
       <use x="254.492188" xlink:href="#DejaVuSans-48"/>
      </g>
     </g>
    </g>
    <g id="xtick_19">
     <g id="line2d_43">
      <g>
       <use style="stroke:#000000;stroke-width:0.8;" x="547.41662" xlink:href="#m5884082668" y="432"/>
      </g>
     </g>
     <g id="text_43">
      <!-- 75000 -->
      <g transform="translate(525.14787 449.637812)scale(0.14 -0.14)">
       <use xlink:href="#DejaVuSans-55"/>
       <use x="63.623047" xlink:href="#DejaVuSans-53"/>
       <use x="127.246094" xlink:href="#DejaVuSans-48"/>
       <use x="190.869141" xlink:href="#DejaVuSans-48"/>
       <use x="254.492188" xlink:href="#DejaVuSans-48"/>
      </g>
     </g>
    </g>
    <g id="xtick_20">
     <g id="line2d_44">
      <g>
       <use style="stroke:#000000;stroke-width:0.8;" x="604.013172" xlink:href="#m5884082668" y="432"/>
      </g>
     </g>
     <g id="text_44">
      <!-- 100000 -->
      <g transform="translate(577.290672 449.637812)scale(0.14 -0.14)">
       <use xlink:href="#DejaVuSans-49"/>
       <use x="63.623047" xlink:href="#DejaVuSans-48"/>
       <use x="127.246094" xlink:href="#DejaVuSans-48"/>
       <use x="190.869141" xlink:href="#DejaVuSans-48"/>
       <use x="254.492188" xlink:href="#DejaVuSans-48"/>
       <use x="318.115234" xlink:href="#DejaVuSans-48"/>
      </g>
     </g>
    </g>
    <g id="text_45">
     <!-- function evaluations -->
     <g transform="translate(421.799867 467.187187)scale(0.14 -0.14)">
      <use xlink:href="#DejaVuSans-102"/>
      <use x="35.205078" xlink:href="#DejaVuSans-117"/>
      <use x="98.583984" xlink:href="#DejaVuSans-110"/>
      <use x="161.962891" xlink:href="#DejaVuSans-99"/>
      <use x="216.943359" xlink:href="#DejaVuSans-116"/>
      <use x="256.152344" xlink:href="#DejaVuSans-105"/>
      <use x="283.935547" xlink:href="#DejaVuSans-111"/>
      <use x="345.117188" xlink:href="#DejaVuSans-110"/>
      <use x="408.496094" xlink:href="#DejaVuSans-32"/>
      <use x="440.283203" xlink:href="#DejaVuSans-101"/>
      <use x="501.806641" xlink:href="#DejaVuSans-118"/>
      <use x="560.986328" xlink:href="#DejaVuSans-97"/>
      <use x="622.265625" xlink:href="#DejaVuSans-108"/>
      <use x="650.048828" xlink:href="#DejaVuSans-117"/>
      <use x="713.427734" xlink:href="#DejaVuSans-97"/>
      <use x="774.707031" xlink:href="#DejaVuSans-116"/>
      <use x="813.916016" xlink:href="#DejaVuSans-105"/>
      <use x="841.699219" xlink:href="#DejaVuSans-111"/>
      <use x="902.880859" xlink:href="#DejaVuSans-110"/>
      <use x="966.259766" xlink:href="#DejaVuSans-115"/>
     </g>
    </g>
   </g>
   <g id="matplotlib.axis_8">
    <g id="ytick_16">
     <g id="line2d_45">
      <g>
       <use style="stroke:#000000;stroke-width:0.8;" x="377.626963" xlink:href="#m093f530fc6" y="432"/>
      </g>
     </g>
     <g id="text_46">
      <!-- 0 -->
      <g transform="translate(361.719463 437.318906)scale(0.14 -0.14)">
       <use xlink:href="#DejaVuSans-48"/>
      </g>
     </g>
    </g>
    <g id="ytick_17">
     <g id="line2d_46">
      <g>
       <use style="stroke:#000000;stroke-width:0.8;" x="377.626963" xlink:href="#m093f530fc6" y="389.944222"/>
      </g>
     </g>
     <g id="text_47">
      <!-- 4 -->
      <g transform="translate(361.719463 395.263128)scale(0.14 -0.14)">
       <use xlink:href="#DejaVuSans-52"/>
      </g>
     </g>
    </g>
    <g id="ytick_18">
     <g id="line2d_47">
      <g>
       <use style="stroke:#000000;stroke-width:0.8;" x="377.626963" xlink:href="#m093f530fc6" y="347.888444"/>
      </g>
     </g>
     <g id="text_48">
      <!-- 8 -->
      <g transform="translate(361.719463 353.207351)scale(0.14 -0.14)">
       <use xlink:href="#DejaVuSans-56"/>
      </g>
     </g>
    </g>
    <g id="ytick_19">
     <g id="line2d_48">
      <g>
       <use style="stroke:#000000;stroke-width:0.8;" x="377.626963" xlink:href="#m093f530fc6" y="305.832667"/>
      </g>
     </g>
     <g id="text_49">
      <!-- 12 -->
      <g transform="translate(352.811963 311.151573)scale(0.14 -0.14)">
       <use xlink:href="#DejaVuSans-49"/>
       <use x="63.623047" xlink:href="#DejaVuSans-50"/>
      </g>
     </g>
    </g>
    <g id="ytick_20">
     <g id="line2d_49">
      <g>
       <use style="stroke:#000000;stroke-width:0.8;" x="377.626963" xlink:href="#m093f530fc6" y="263.776889"/>
      </g>
     </g>
     <g id="text_50">
      <!-- 16 -->
      <g transform="translate(352.811963 269.095795)scale(0.14 -0.14)">
       <use xlink:href="#DejaVuSans-49"/>
       <use x="63.623047" xlink:href="#DejaVuSans-54"/>
      </g>
     </g>
    </g>
    <g id="text_51">
     <!-- best individual error -->
     <g transform="translate(345.9004 418.394851)rotate(-90)scale(0.14 -0.14)">
      <use xlink:href="#DejaVuSans-98"/>
      <use x="63.476562" xlink:href="#DejaVuSans-101"/>
      <use x="125" xlink:href="#DejaVuSans-115"/>
      <use x="177.099609" xlink:href="#DejaVuSans-116"/>
      <use x="216.308594" xlink:href="#DejaVuSans-32"/>
      <use x="248.095703" xlink:href="#DejaVuSans-105"/>
      <use x="275.878906" xlink:href="#DejaVuSans-110"/>
      <use x="339.257812" xlink:href="#DejaVuSans-100"/>
      <use x="402.734375" xlink:href="#DejaVuSans-105"/>
      <use x="430.517578" xlink:href="#DejaVuSans-118"/>
      <use x="489.697266" xlink:href="#DejaVuSans-105"/>
      <use x="517.480469" xlink:href="#DejaVuSans-100"/>
      <use x="580.957031" xlink:href="#DejaVuSans-117"/>
      <use x="644.335938" xlink:href="#DejaVuSans-97"/>
      <use x="705.615234" xlink:href="#DejaVuSans-108"/>
      <use x="733.398438" xlink:href="#DejaVuSans-32"/>
      <use x="765.185547" xlink:href="#DejaVuSans-101"/>
      <use x="826.708984" xlink:href="#DejaVuSans-114"/>
      <use x="866.072266" xlink:href="#DejaVuSans-114"/>
      <use x="904.935547" xlink:href="#DejaVuSans-111"/>
      <use x="966.117188" xlink:href="#DejaVuSans-114"/>
     </g>
    </g>
   </g>
   <g id="line2d_50">
    <path clip-path="url(#pf7f2ad89b3)" d="M 377.853349 218.416706 
L 378.079735 218.47764 
L 378.532507 222.615774 
L 378.758894 222.615774 
L 378.98528 226.338516 
L 379.438052 226.338516 
L 379.664438 227.737577 
L 379.890825 227.737577 
L 380.117211 228.8897 
L 380.343597 234.125705 
L 380.79637 234.125705 
L 381.249142 235.64612 
L 381.475528 236.617844 
L 381.701914 236.617844 
L 382.154687 240.728398 
L 382.607459 240.824105 
L 383.060232 242.062383 
L 383.513004 257.710192 
L 383.73939 257.710192 
L 383.965776 270.191112 
L 384.644935 270.193586 
L 385.097707 271.010914 
L 385.324094 271.014668 
L 385.55048 272.035139 
L 386.003252 280.429842 
L 386.908797 280.429842 
L 387.135183 287.086876 
L 388.040728 287.161333 
L 388.267114 292.600498 
L 388.946273 292.600498 
L 389.172659 297.969217 
L 389.399045 297.969217 
L 389.625432 305.663145 
L 390.30459 305.674139 
L 390.530977 307.903494 
L 390.757363 312.847221 
L 391.210135 312.847221 
L 391.436521 314.741696 
L 391.889294 314.741696 
L 392.11568 316.341824 
L 392.342066 316.341824 
L 392.568452 317.829804 
L 394.605928 317.841218 
L 394.832315 318.175262 
L 395.058701 319.631815 
L 395.964246 319.631815 
L 396.190632 320.773672 
L 396.643404 320.773672 
L 396.86979 321.609344 
L 397.096177 326.181574 
L 397.548949 326.181574 
L 397.775335 327.665933 
L 398.68088 327.665933 
L 398.907266 333.535764 
L 400.718356 333.535764 
L 400.944742 333.780966 
L 402.529446 333.780966 
L 402.755832 335.736995 
L 403.208604 335.736995 
L 403.43499 336.827408 
L 403.887763 336.827408 
L 404.114149 339.133928 
L 406.378011 339.133928 
L 406.604397 340.337013 
L 407.736328 340.337013 
L 407.962715 344.845313 
L 412.264053 344.94098 
L 412.943211 345.000587 
L 413.169597 350.02325 
L 413.848756 350.02325 
L 414.075142 350.324925 
L 415.207073 350.324925 
L 415.43346 353.408195 
L 418.37648 353.410446 
L 418.602867 354.564596 
L 419.734798 354.564596 
L 419.961184 354.715884 
L 420.413956 354.715884 
L 420.640342 354.894177 
L 422.904204 354.911184 
L 423.583363 359.680185 
L 424.715294 359.680185 
L 424.94168 360.029923 
L 425.168067 367.673058 
L 425.394453 367.892424 
L 425.847225 367.892424 
L 426.073611 368.334046 
L 428.56386 368.398553 
L 428.790246 369.332932 
L 430.601336 369.332932 
L 430.827722 369.612597 
L 431.50688 369.612597 
L 431.733267 369.738948 
L 432.186039 371.94567 
L 433.31797 371.94567 
L 433.544356 373.031498 
L 433.770743 373.031498 
L 433.997129 374.889279 
L 434.676287 374.889279 
L 434.902674 380.338046 
L 436.260991 380.338046 
L 436.487377 382.689533 
L 438.298467 382.693273 
L 438.524853 382.973031 
L 439.430398 382.973031 
L 439.656784 383.556495 
L 442.599805 383.556495 
L 443.052577 386.583211 
L 448.033074 386.610885 
L 448.25946 391.04692 
L 448.485846 391.04692 
L 448.712232 391.1801 
L 450.07055 391.1801 
L 450.296936 391.90319 
L 456.182977 391.945033 
L 456.409364 393.027863 
L 465.238426 393.081618 
L 465.464812 396.671268 
L 466.823129 396.671268 
L 467.275902 396.787743 
L 470.445309 396.846991 
L 470.898081 398.040164 
L 474.746646 398.067333 
L 475.199419 399.380425 
L 475.878578 399.380425 
L 476.104964 399.62208 
L 483.575709 399.62208 
L 483.802095 400.431255 
L 489.008978 400.431255 
L 489.235364 401.009964 
L 492.178385 401.009964 
L 492.404771 401.716822 
L 492.857543 401.716822 
L 493.083929 403.434095 
L 505.761557 403.544743 
L 505.987943 404.041157 
L 506.893488 404.041157 
L 507.119874 404.352838 
L 510.289281 404.352838 
L 510.515668 406.419165 
L 529.758495 406.51022 
L 529.984882 406.8465 
L 535.644537 406.904109 
L 536.097309 407.024418 
L 538.813944 407.055243 
L 539.04033 407.338977 
L 541.077806 407.338977 
L 541.530578 407.46332 
L 556.924841 407.541607 
L 557.377613 408.05569 
L 567.11222 408.068449 
L 567.338606 409.012405 
L 568.92331 409.012405 
L 569.149696 410.165266 
L 601.522924 410.187017 
L 601.74931 410.382605 
L 604.239558 410.390326 
L 604.239558 410.390326 
" style="fill:none;stroke:#1f77b4;stroke-linecap:square;stroke-width:1.5;"/>
   </g>
   <g id="line2d_51">
    <path clip-path="url(#pf7f2ad89b3)" d="M 384.418549 210.749184 
L 391.210135 337.824078 
L 398.001721 386.398851 
L 404.793308 404.522356 
L 411.584894 407.322707 
L 418.37648 419.121772 
L 425.168067 421.793502 
L 431.959653 424.567074 
L 438.751239 427.930387 
L 445.542825 429.151313 
L 452.334412 430.365859 
L 459.125998 431.003811 
L 465.917584 431.295774 
L 472.709171 431.439616 
L 479.500757 431.584811 
L 486.292343 431.685861 
L 493.083929 431.729453 
L 499.875516 431.759854 
L 506.667102 431.769839 
L 513.458688 431.777235 
L 520.250275 431.797271 
L 527.041861 431.833698 
L 533.833447 431.856727 
L 540.625033 431.874976 
L 547.41662 431.876754 
L 554.208206 431.88038 
L 560.999792 431.880841 
L 567.791379 431.883167 
L 574.582965 431.915417 
L 581.374551 431.924726 
L 588.166137 431.928321 
L 594.957724 431.928321 
L 601.74931 431.929061 
L 608.540896 431.929061 
" style="fill:none;stroke:#ff7f0e;stroke-linecap:square;stroke-width:1.5;"/>
   </g>
   <g id="line2d_52">
    <path clip-path="url(#pf7f2ad89b3)" d="M 379.890825 217.828905 
L 382.156951 326.867632 
L 384.423077 362.168116 
L 386.689203 388.284392 
L 388.955329 396.21898 
L 391.221454 401.835082 
L 393.48758 407.158691 
L 395.753706 412.810804 
L 398.019832 416.915501 
L 400.285958 422.201699 
L 402.552084 423.623331 
L 404.81821 423.952198 
L 407.084336 424.084477 
L 409.350462 424.891796 
L 411.616588 427.008049 
L 413.882714 427.755877 
L 416.14884 429.386417 
L 418.414966 429.480638 
L 420.681092 429.480638 
L 422.947218 431.210455 
L 425.213344 431.215146 
L 427.47947 431.241147 
L 429.745596 431.828951 
L 432.011722 431.869774 
L 434.277848 431.869774 
L 436.543974 431.936901 
L 438.8101 431.937736 
L 441.076226 431.942988 
L 443.342351 431.948746 
L 445.608477 431.952955 
L 447.874603 431.956365 
L 450.140729 431.95756 
L 452.406855 431.95756 
L 454.672981 431.95756 
L 456.939107 431.95756 
L 459.205233 431.972081 
L 461.471359 431.97396 
L 463.737485 431.97396 
L 466.003611 431.97396 
L 468.269737 431.97396 
L 470.535863 431.97396 
L 472.801989 431.97396 
L 475.068115 431.97396 
L 477.334241 431.97396 
L 479.600367 431.980631 
L 481.866493 431.980631 
L 484.132619 431.980631 
L 486.398745 431.980631 
L 488.664871 431.980631 
L 490.930997 431.980631 
L 493.197123 431.980631 
L 495.463249 431.980631 
L 497.729374 431.980631 
L 499.9955 431.980631 
L 502.261626 431.980631 
L 504.527752 431.980631 
L 506.793878 431.980631 
L 509.060004 431.980631 
L 511.32613 431.980631 
L 513.592256 431.980631 
L 515.858382 431.980631 
L 518.124508 431.980631 
L 520.390634 431.980631 
L 522.65676 431.980631 
L 524.922886 431.980631 
L 527.189012 431.980631 
L 529.455138 431.980631 
L 531.721264 431.980631 
L 533.98739 431.980631 
L 536.253516 431.980631 
L 538.519642 431.980631 
L 540.785768 431.980631 
L 543.051894 431.980631 
L 545.31802 431.980631 
L 547.584146 431.980631 
L 549.850272 431.980631 
L 552.116397 431.980631 
L 554.382523 431.980631 
L 556.648649 431.980631 
L 558.914775 431.980631 
L 561.180901 431.980631 
L 563.447027 431.980631 
L 565.713153 431.980631 
L 567.979279 431.980631 
L 570.245405 431.980631 
L 572.511531 431.980631 
L 574.777657 431.980631 
L 577.043783 431.980631 
L 579.309909 431.980631 
L 581.576035 431.980631 
L 583.842161 431.980631 
L 586.108287 431.980631 
L 588.374413 431.980631 
L 590.640539 431.980631 
L 592.906665 431.980631 
L 595.172791 431.980631 
L 597.438917 431.980631 
L 599.705043 431.980631 
L 601.971169 431.980631 
L 604.237295 431.980631 
" style="fill:none;stroke:#2ca02c;stroke-linecap:square;stroke-width:1.5;"/>
   </g>
   <g id="patch_18">
    <path d="M 377.626963 432 
L 377.626963 263.776889 
" style="fill:none;stroke:#000000;stroke-linecap:square;stroke-linejoin:miter;stroke-width:0.8;"/>
   </g>
   <g id="patch_19">
    <path d="M 608.540896 432 
L 608.540896 263.776889 
" style="fill:none;stroke:#000000;stroke-linecap:square;stroke-linejoin:miter;stroke-width:0.8;"/>
   </g>
   <g id="patch_20">
    <path d="M 377.626963 432 
L 608.540896 432 
" style="fill:none;stroke:#000000;stroke-linecap:square;stroke-linejoin:miter;stroke-width:0.8;"/>
   </g>
   <g id="patch_21">
    <path d="M 377.626963 263.776889 
L 608.540896 263.776889 
" style="fill:none;stroke:#000000;stroke-linecap:square;stroke-linejoin:miter;stroke-width:0.8;"/>
   </g>
   <g id="text_52">
    <!-- AckleyLandscape -->
    <g transform="translate(420.400304 257.776889)scale(0.168 -0.168)">
     <defs>
      <path d="M 34.1875 63.1875 
L 20.796875 26.90625 
L 47.609375 26.90625 
z
M 28.609375 72.90625 
L 39.796875 72.90625 
L 67.578125 0 
L 57.328125 0 
L 50.6875 18.703125 
L 17.828125 18.703125 
L 11.1875 0 
L 0.78125 0 
z
" id="DejaVuSans-65"/>
      <path d="M 32.171875 -5.078125 
Q 28.375 -14.84375 24.75 -17.8125 
Q 21.140625 -20.796875 15.09375 -20.796875 
L 7.90625 -20.796875 
L 7.90625 -13.28125 
L 13.1875 -13.28125 
Q 16.890625 -13.28125 18.9375 -11.515625 
Q 21 -9.765625 23.484375 -3.21875 
L 25.09375 0.875 
L 2.984375 54.6875 
L 12.5 54.6875 
L 29.59375 11.921875 
L 46.6875 54.6875 
L 56.203125 54.6875 
z
" id="DejaVuSans-121"/>
     </defs>
     <use xlink:href="#DejaVuSans-65"/>
     <use x="66.658203" xlink:href="#DejaVuSans-99"/>
     <use x="121.638672" xlink:href="#DejaVuSans-107"/>
     <use x="179.548828" xlink:href="#DejaVuSans-108"/>
     <use x="207.332031" xlink:href="#DejaVuSans-101"/>
     <use x="268.855469" xlink:href="#DejaVuSans-121"/>
     <use x="328.035156" xlink:href="#DejaVuSans-76"/>
     <use x="383.748047" xlink:href="#DejaVuSans-97"/>
     <use x="445.027344" xlink:href="#DejaVuSans-110"/>
     <use x="508.40625" xlink:href="#DejaVuSans-100"/>
     <use x="571.882812" xlink:href="#DejaVuSans-115"/>
     <use x="623.982422" xlink:href="#DejaVuSans-99"/>
     <use x="678.962891" xlink:href="#DejaVuSans-97"/>
     <use x="740.242188" xlink:href="#DejaVuSans-112"/>
     <use x="803.71875" xlink:href="#DejaVuSans-101"/>
    </g>
   </g>
  </g>
  <g id="legend_1">
   <g id="patch_22">
    <path d="M 259.540937 569 
L 388.459062 569 
Q 391.259062 569 391.259062 566.2 
L 391.259062 514.351875 
Q 391.259062 511.551875 388.459062 511.551875 
L 259.540937 511.551875 
Q 256.740937 511.551875 256.740937 514.351875 
L 256.740937 566.2 
Q 256.740937 569 259.540937 569 
z
" style="fill:#ffffff;opacity:0.8;stroke:#cccccc;stroke-linejoin:miter;"/>
   </g>
   <g id="line2d_53">
    <path d="M 262.340937 522.889688 
L 290.340937 522.889688 
" style="fill:none;stroke:#1f77b4;stroke-linecap:square;stroke-width:1.5;"/>
   </g>
   <g id="line2d_54"/>
   <g id="text_53">
    <!-- StandardGA -->
    <g transform="translate(301.540937 527.789688)scale(0.14 -0.14)">
     <use xlink:href="#DejaVuSans-83"/>
     <use x="63.476562" xlink:href="#DejaVuSans-116"/>
     <use x="102.685547" xlink:href="#DejaVuSans-97"/>
     <use x="163.964844" xlink:href="#DejaVuSans-110"/>
     <use x="227.34375" xlink:href="#DejaVuSans-100"/>
     <use x="290.820312" xlink:href="#DejaVuSans-97"/>
     <use x="352.099609" xlink:href="#DejaVuSans-114"/>
     <use x="391.462891" xlink:href="#DejaVuSans-100"/>
     <use x="454.939453" xlink:href="#DejaVuSans-71"/>
     <use x="532.429688" xlink:href="#DejaVuSans-65"/>
    </g>
   </g>
   <g id="line2d_55">
    <path d="M 262.340937 539.239063 
L 290.340937 539.239063 
" style="fill:none;stroke:#ff7f0e;stroke-linecap:square;stroke-width:1.5;"/>
   </g>
   <g id="line2d_56"/>
   <g id="text_54">
    <!-- CCGA1 -->
    <g transform="translate(301.540937 544.139063)scale(0.14 -0.14)">
     <defs>
      <path d="M 64.40625 67.28125 
L 64.40625 56.890625 
Q 59.421875 61.53125 53.78125 63.8125 
Q 48.140625 66.109375 41.796875 66.109375 
Q 29.296875 66.109375 22.65625 58.46875 
Q 16.015625 50.828125 16.015625 36.375 
Q 16.015625 21.96875 22.65625 14.328125 
Q 29.296875 6.6875 41.796875 6.6875 
Q 48.140625 6.6875 53.78125 8.984375 
Q 59.421875 11.28125 64.40625 15.921875 
L 64.40625 5.609375 
Q 59.234375 2.09375 53.4375 0.328125 
Q 47.65625 -1.421875 41.21875 -1.421875 
Q 24.65625 -1.421875 15.125 8.703125 
Q 5.609375 18.84375 5.609375 36.375 
Q 5.609375 53.953125 15.125 64.078125 
Q 24.65625 74.21875 41.21875 74.21875 
Q 47.75 74.21875 53.53125 72.484375 
Q 59.328125 70.75 64.40625 67.28125 
z
" id="DejaVuSans-67"/>
     </defs>
     <use xlink:href="#DejaVuSans-67"/>
     <use x="69.824219" xlink:href="#DejaVuSans-67"/>
     <use x="139.648438" xlink:href="#DejaVuSans-71"/>
     <use x="217.138672" xlink:href="#DejaVuSans-65"/>
     <use x="285.546875" xlink:href="#DejaVuSans-49"/>
    </g>
   </g>
   <g id="line2d_57">
    <path d="M 262.340937 555.588438 
L 290.340937 555.588438 
" style="fill:none;stroke:#2ca02c;stroke-linecap:square;stroke-width:1.5;"/>
   </g>
   <g id="line2d_58"/>
   <g id="text_55">
    <!-- ModularGA -->
    <g transform="translate(301.540937 560.488438)scale(0.14 -0.14)">
     <defs>
      <path d="M 9.8125 72.90625 
L 24.515625 72.90625 
L 43.109375 23.296875 
L 61.8125 72.90625 
L 76.515625 72.90625 
L 76.515625 0 
L 66.890625 0 
L 66.890625 64.015625 
L 48.09375 14.015625 
L 38.1875 14.015625 
L 19.390625 64.015625 
L 19.390625 0 
L 9.8125 0 
z
" id="DejaVuSans-77"/>
     </defs>
     <use xlink:href="#DejaVuSans-77"/>
     <use x="86.279297" xlink:href="#DejaVuSans-111"/>
     <use x="147.460938" xlink:href="#DejaVuSans-100"/>
     <use x="210.9375" xlink:href="#DejaVuSans-117"/>
     <use x="274.316406" xlink:href="#DejaVuSans-108"/>
     <use x="302.099609" xlink:href="#DejaVuSans-97"/>
     <use x="363.378906" xlink:href="#DejaVuSans-114"/>
     <use x="404.492188" xlink:href="#DejaVuSans-71"/>
     <use x="481.982422" xlink:href="#DejaVuSans-65"/>
    </g>
   </g>
  </g>
 </g>
 <defs>
  <clipPath id="pb0c0b2e660">
   <rect height="168.223111" width="230.913934" x="57.87" y="35.12"/>
  </clipPath>
  <clipPath id="pd33618a9a0">
   <rect height="168.223111" width="230.913934" x="377.626963" y="35.12"/>
  </clipPath>
  <clipPath id="p7be88ef6e1">
   <rect height="168.223111" width="230.913934" x="57.87" y="263.776889"/>
  </clipPath>
  <clipPath id="pf7f2ad89b3">
   <rect height="168.223111" width="230.913934" x="377.626963" y="263.776889"/>
  </clipPath>
 </defs>
</svg>
